<svg xmlns="http://www.w3.org/2000/svg" height="54" width="135" viewBox="0 0 135 54"><g fill-rule="nonzero" fill="#B3B3B3"><path d="M24.4 27.6c5.5-1.9 9-6.5 9-12.3C33.4 8.91 28.5 2 17.9 2 10.3 2 2.5 6.56 2.5 15.3c-.02 5.2 3.1 9.8 8.1 11.9l.9.2C4.5 29.3 0 34.6 0 41c0 7 5.6 14.4 17.9 14.4S35.8 48 35.8 41c0-6.5-4.2-11.5-11.4-13.4zm6.8-12.3c0 5.6-4.1 11.3-13.3 11.3-6.5 0-13.4-3.5-13.4-11.2.03-7.77 6.9-11.3 13.4-11.3 6.4-.03 13.3 3.46 13.3 11.2zM17.9 28.7c10.9 0 15.8 6.4 15.8 12.4 0 8.4-8.2 12.2-15.8 12.2C7 53.3 2.1 47 2.1 41.1c-.05-6 4.91-12.4 15.8-12.4zM62.3 50.92l19.6-46.4h2.2L63 54.32h-1.5L40.47 4.52h2.27M134.5 43.42c-3.3 5.7-11.2 11.7-21.6 11.7-14.1 0-25.6-10.8-25.6-25.7 0-15 11.5-25.8 25.6-25.8 10.6.085 18.1 6.32 21.7 12h-2.3c-1.9-2.65-8.4-10.1-19.3-10.2-13.1.03-23.7 10.2-23.7 24s10.6 23.9 23.7 23.9c11.5 0 17.9-7.9 19.3-9.9h2.2z"/></g></svg>