<svg xmlns="http://www.w3.org/2000/svg" height="64" width="96" viewBox="0 0 96 64"><title>circle-ventures-splash-page-logo</title><g fill-rule="nonzero" fill="#B4B4B4"><path d="M2.11 71.12c-.59 0-1.07-.21-1.45-.59-.54-.55-.524-1.23-.524-2.16 0-.94-.015-1.62.527-2.16.377-.385.857-.598 1.45-.598 1 0 1.79.578 1.97 1.71h-1.06c-.1-.43-.37-.76-.9-.76-.29 0-.52.1-.67.28-.21.22-.27.48-.27 1.53 0 1.04.06 1.3.27 1.53.15.17.38.28.67.28.53 0 .8-.34.9-.77h1.06c-.18 1.13-.97 1.71-1.97 1.71zM7.25 71.08v-5.423H8.3v5.423M14.7 71.08l-1.1-2.17h-.7v2.17h-1.1v-5.42l2.1-.003c1.1 0 1.8.753 1.8 1.66 0 .76-.5 1.23-1 1.42l1.2 2.34h-1.2zm-.9-4.48h-.9v1.43h.9c.5 0 .8-.3.8-.71 0-.42-.3-.72-.8-.72zM20.8 71.12c-.6 0-1.1-.21-1.5-.59-.5-.55-.5-1.23-.5-2.16 0-.94 0-1.62.5-2.16.4-.385.9-.598 1.5-.598 1 0 1.8.578 2 1.71h-1.1c-.1-.43-.4-.76-.9-.76-.3 0-.5.1-.7.28-.2.22-.2.48-.2 1.53 0 1.04 0 1.3.2 1.53.2.17.4.28.7.28.5 0 .8-.34.9-.77h1.1c-.2 1.13-1 1.71-2 1.71zM25.9 71.08v-5.423H27v4.473h2.4v.95M32.5 71.08v-5.423h3.6v.943h-2.5v1.27h2.1v.95h-2.1v1.31h2.5v.95M45.3 71.08h-.8l-1.7-5.423h1l1.1 3.533 1.1-3.533h1.1M50 71.08v-5.423h3.5v.943H51v1.27h2.2v.95H51v1.31h2.5v.95M60 71.08l-2.1-3.33v3.33h-1.1v-5.423h1l2.1 3.313v-3.313h1v5.423M66.5 66.6v4.48h-1.1V66.6H64v-.943h3.9v.943M72.9 71.12c-1.1 0-2-.75-2-1.9v-3.56l1.1-.003v3.52c0 .62.3 1 .9 1s.9-.38.9-1v-3.52l1.1-.003v3.56c0 1.15-.9 1.9-2 1.9zM81.1 71.08l-1-2.17h-.8v2.17h-1v-5.42l2.1-.003c1.1 0 1.7.753 1.7 1.66 0 .76-.4 1.23-.9 1.42l1.2 2.34h-1.3zm-.8-4.48h-1v1.43h1c.5 0 .8-.3.8-.71 0-.42-.3-.72-.8-.72zM85.5 71.08v-5.423H89v.943h-2.5v1.27h2.2v.95h-2.2v1.31H89v.95M93.8 71.12c-.8 0-1.4-.17-2-.71l.7-.69c.3.34.8.46 1.3.46.6 0 1-.24 1-.67 0-.19-.1-.35-.2-.46-.1-.1-.2-.15-.5-.19l-.6-.09c-.5-.07-.8-.21-1.1-.45-.2-.26-.4-.61-.4-1.06 0-.97.7-1.65 1.9-1.65.7 0 1.3.184 1.7.633l-.6.667c-.4-.33-.8-.38-1.1-.38-.6 0-.9.31-.9.69 0 .13.1.28.2.39.1.09.3.18.5.21l.6.09c.5.07.8.21 1.1.42.2.27.4.67.4 1.15 0 1.05-.9 1.64-2 1.64z"/><g><path d="M22.89 48.5c-11 0-20-9-20-20.2.018-11.1 8.98-20.2 20-20.2 11 .048 20 9.1 20 20.2 0 11.2-9 20.2-20 20.2zm0-37c-9.2 0-16.6 7.56-16.6 16.8-.02 9.3 7.4 16.8 16.6 16.8s16.6-7.5 16.6-16.8c0-9.2-7.4-16.8-16.6-16.8zM71.39 48.5c-.6 0-1.2-.3-1.5-.9l-19.9-37c-.3-.47-.3-1.11.1-1.62.3-.518.8-.832 1.4-.832h39.8c.5 0 1.1.314 1.4.828s.3 1.15 0 1.67l-19.8 37c-.3.6-.9.9-1.5.9zm-17.1-37l17.1 31.8 17-31.8-34.1.04z"/></g></g></svg>