<?xml version="1.0" encoding="utf-8"?>
<!-- Generator: Adobe Illustrator 17.0.0, SVG Export Plug-In . SVG Version: 6.00 Build 0)  -->
<!DOCTYPE svg PUBLIC "-//W3C//DTD SVG 1.1//EN" "http://www.w3.org/Graphics/SVG/1.1/DTD/svg11.dtd">
<svg version="1.1" id="Logo_1_" xmlns="http://www.w3.org/2000/svg" xmlns:xlink="http://www.w3.org/1999/xlink" x="0px" y="0px"
	 width="133px" height="35px" viewBox="0 0 133 35" enable-background="new 0 0 133 35" xml:space="preserve">
<g id="common">
	<g>
		<path fill-rule="evenodd" clip-rule="evenodd" fill="#FFFFFF" d="M50.091,20.899c-1.462,0-2.424-0.336-2.887-1.008
			c-0.463-0.671-0.694-1.863-0.694-3.574c0-1.711,0.248-2.883,0.743-3.515c0.495-0.633,1.433-0.949,2.814-0.949
			c0.617,0,1.575,0.07,2.875,0.211l0.073-1.43l-0.584-0.07c-1.284-0.187-2.193-0.281-2.729-0.281c-1.819,0-3.118,0.45-3.898,1.348
			c-0.78,0.899-1.169,2.461-1.169,4.687s0.361,3.808,1.084,4.746c0.723,0.937,2.035,1.406,3.935,1.406
			c0.747,0,1.876-0.109,3.387-0.328l-0.073-1.453L50.091,20.899z M60.555,10.283c-1.892,0-3.237,0.477-4.032,1.43
			c-0.796,0.953-1.194,2.5-1.194,4.64c0,2.141,0.374,3.695,1.121,4.664c0.747,0.969,2.111,1.453,4.093,1.453
			c1.981,0,3.346-0.484,4.093-1.453c0.747-0.968,1.121-2.523,1.121-4.664c0-2.14-0.394-3.687-1.182-4.64
			C63.787,10.76,62.447,10.283,60.555,10.283z M63.247,19.927c-0.422,0.68-1.32,1.019-2.692,1.019c-1.373,0-2.274-0.343-2.704-1.031
			c-0.431-0.687-0.646-1.887-0.646-3.597c0-1.711,0.239-2.89,0.719-3.539c0.479-0.648,1.356-0.972,2.631-0.972
			c1.275,0,2.148,0.324,2.619,0.972c0.471,0.648,0.706,1.832,0.706,3.55C63.881,18.049,63.669,19.247,63.247,19.927z M81.837,10.283
			c-0.65,0-1.401,0.121-2.254,0.363c-0.853,0.242-1.547,0.52-2.083,0.831c-0.601-0.797-1.657-1.195-3.167-1.195
			c-1.154,0-2.339,0.351-3.557,1.055v-0.82h-1.803v11.718H70.8v-9.514l0.414-0.211c0.292-0.141,0.71-0.285,1.255-0.434
			c0.544-0.148,1.076-0.223,1.596-0.223c1.072,0,1.767,0.301,2.083,0.902c0.317,0.602,0.475,1.746,0.475,3.433v6.046h1.827v-6.093
			c0-1.765-0.106-2.906-0.317-3.421l0.463-0.211c0.308-0.141,0.747-0.285,1.315-0.434c0.569-0.148,1.121-0.223,1.657-0.223
			c1.056,0,1.746,0.301,2.071,0.902c0.325,0.602,0.487,1.715,0.487,3.339v6.14h1.827v-6.187c0-2.171-0.28-3.675-0.84-4.511
			C84.553,10.702,83.46,10.283,81.837,10.283z M102.448,10.283c-0.65,0-1.401,0.121-2.254,0.363
			c-0.853,0.242-1.547,0.52-2.083,0.831c-0.601-0.797-1.657-1.195-3.167-1.195c-1.153,0-2.339,0.351-3.557,1.055v-0.82h-1.803
			v11.718h1.827v-9.514l0.414-0.211c0.292-0.141,0.71-0.285,1.255-0.434c0.544-0.148,1.076-0.223,1.596-0.223
			c1.072,0,1.766,0.301,2.083,0.902c0.317,0.602,0.475,1.746,0.475,3.433v6.046h1.827v-6.093c0-1.765-0.106-2.906-0.317-3.421
			l0.463-0.211c0.308-0.141,0.747-0.285,1.315-0.434c0.569-0.148,1.121-0.223,1.657-0.223c1.056,0,1.746,0.301,2.071,0.902
			c0.325,0.602,0.487,1.715,0.487,3.339v6.14h1.827v-6.187c0-2.171-0.28-3.675-0.84-4.511
			C105.165,10.702,104.072,10.283,102.448,10.283z M114.886,10.283c-1.892,0-3.236,0.477-4.032,1.43
			c-0.796,0.953-1.194,2.5-1.194,4.64c0,2.141,0.373,3.695,1.121,4.664c0.747,0.969,2.111,1.453,4.093,1.453
			c1.981,0,3.346-0.484,4.093-1.453c0.747-0.968,1.121-2.523,1.121-4.664c0-2.14-0.394-3.687-1.182-4.64
			C118.118,10.76,116.778,10.283,114.886,10.283z M117.578,19.927c-0.423,0.68-1.32,1.019-2.692,1.019
			c-1.373,0-2.274-0.343-2.704-1.031c-0.43-0.687-0.646-1.887-0.646-3.597c0-1.711,0.239-2.89,0.719-3.539
			c0.479-0.648,1.356-0.972,2.631-0.972c1.275,0,2.148,0.324,2.619,0.972c0.471,0.648,0.706,1.832,0.706,3.55
			C118.211,18.049,118,19.247,117.578,19.927z M132.16,11.549c-0.561-0.844-1.653-1.265-3.277-1.265
			c-1.202,0-2.461,0.351-3.776,1.055v-0.82h-1.803v11.718h1.827v-9.514l0.463-0.211c0.308-0.141,0.751-0.285,1.328-0.434
			c0.576-0.148,1.125-0.223,1.644-0.223c1.088,0,1.799,0.301,2.132,0.902c0.333,0.602,0.499,1.715,0.499,3.339v6.14H133v-6.187
			C133,13.892,132.72,12.392,132.16,11.549z M17.926,5.704l-8.51,8.268l3.646,3.542l-3.646,3.542l8.51,8.268l4.856-4.718l-7.3-7.093
			l7.3-7.093L17.926,5.704z M20.378,24.607l-2.452,2.383l-6.107-5.934l2.444-2.375l0.008,0.008l0.008-0.008L20.378,24.607z
			 M14.28,16.346l-0.008-0.008l-0.008,0.008l-2.444-2.375l6.107-5.933l2.452,2.383L14.28,16.346z M20.431,0.978
			c-0.647-0.629-1.508-0.976-2.424-0.976c-0.916,0-1.776,0.346-2.424,0.976L1.002,15.145c-0.647,0.629-1.004,1.465-1.004,2.354
			c0,0.89,0.357,1.726,1.004,2.355l14.581,14.167c0.647,0.629,1.508,0.976,2.424,0.976c0.915,0,1.776-0.346,2.423-0.976
			l14.581-14.167c0.647-0.629,1.004-1.465,1.004-2.355c0-0.889-0.357-1.725-1.004-2.354L20.431,0.978z M33.81,18.687L19.229,32.854
			c-0.326,0.317-0.76,0.492-1.222,0.492c-0.462,0-0.895-0.175-1.222-0.492L2.204,18.687c-0.326-0.317-0.506-0.739-0.506-1.187
			c0-0.448,0.18-0.87,0.506-1.187L16.785,2.145c0.326-0.317,0.76-0.492,1.222-0.492c0.461,0,0.895,0.175,1.222,0.492L33.81,16.312
			c0.326,0.317,0.506,0.739,0.506,1.187C34.316,17.948,34.137,18.369,33.81,18.687z"/>
	</g>
</g>
</svg>
