<svg version="1" xmlns="http://www.w3.org/2000/svg" width="20" height="20" viewBox="0 0 900 963">
  <path fill="#3D3F41" d="M443 3.8c-.8.4-4.8 2.9-8.9 5.7-4 2.7-8.1 5.4-9 6-.9.5-6.9 4.6-13.4 9-6.4 4.4-12.5 8.5-13.5 9-.9.6-5 3.3-9.1 6-4 2.8-8.1 5.4-9 6-.9.5-4.9 3.2-8.9 6-4 2.7-8.1 5.4-9 6-.9.5-3.3 2.2-5.3 3.7-2 1.6-3.9 2.8-4.2 2.8-.9 0-14 8.9-16.7 11.4-2.2 2-4.9 3.9-10.1 7.1-1 .5-4.1 2.7-7.1 4.7-3.1 2.1-6 3.8-6.7 3.8-.6 0-1.1.5-1.1 1 0 .6-.8 1.3-1.7 1.7-1 .3-3.4 1.8-5.3 3.2-1.9 1.4-4.3 3-5.2 3.6-.9.5-5 3.2-9 6-4 2.7-8 5.4-8.9 6-.9.5-4.1 2.7-7.1 4.7-3.1 2.1-6 3.8-6.5 3.8-.6 0-1.3.7-1.7 1.5-.3.8-1 1.5-1.7 1.5-.6 0-2.8 1.2-4.8 2.7-2 1.6-4.4 3.2-5.3 3.8-.9.5-5 3.2-9 6-4 2.7-8 5.4-9 6-.9.5-5.1 3.4-9.3 6.2-4.2 2.9-7.9 5.3-8.2 5.3-.3 0-2.2 1.3-4.3 3-2.1 1.6-4.1 3-4.4 3-.4 0-3.3 1.9-6.4 4.2-5.7 4.3-8 5.8-11.7 7.8-1.1.5-4 2.6-6.5 4.5s-5.4 4-6.5 4.5c-2.4 1.2-4.7 2.7-16 10.5-11.9 8.1-13.7 9.3-16 10.5-1.1.5-4 2.6-6.5 4.5s-5.4 4-6.5 4.5c-1.1.6-3.2 1.8-4.6 2.8-13.4 8.9-18.5 12.6-19.2 13.8-.4.8-1.3 1.4-1.9 1.4-.5 0-2.7 1.3-4.8 3-2.1 1.6-4 3-4.4 3-.3 0-2.5 1.4-4.8 3-10.7 7.5-12.9 9-13.6 9-.5 0-1.7.7-2.7 1.5-1.1.8-3.7 2.8-5.9 4.5-2.1 1.6-4.5 3-5.2 3-.8 0-1.4.5-1.4 1 0 .6-.8 1.4-1.7 1.8-1.7.7-14.1 8.9-23.1 15.2-2.3 1.6-4.6 3-5.1 3-.4 0-1.6.9-2.6 2s-2.2 2-2.8 2c-.5 0-2.2 1.1-3.9 2.5-1.6 1.4-3.6 2.5-4.4 2.5-.8 0-1.4.5-1.4 1 0 .6-.8 1.4-1.7 1.8-1 .4-5.5 3.2-10 6.2L0 300.5V421h28c21.7 0 28 .3 28 1.2v177.3c0 96.8.4 176.6.8 177.3.7 1 79.4 1.2 390.3 1l389.4-.3.3-178.3.2-178.2h63V303.4l-3.4-1.2c-1.9-.7-3.7-1.9-4-2.7-.3-.8-1.5-1.5-2.6-1.5s-2.3-.6-2.6-1.4c-.3-.8-1.8-1.9-3.2-2.5-1.5-.6-4.7-2.6-7.2-4.5s-4.8-3.5-5.2-3.5c-.4-.1-3.4-2.1-6.7-4.6-3.2-2.5-6.2-4.5-6.5-4.5-1 0-10.1-6.5-10.9-7.8-.4-.6-1.5-1.2-2.4-1.2-.9 0-2.3-.7-3.2-1.5-.9-.9-3.2-2.7-5.1-4-1.9-1.3-5.3-3.7-7.4-5.2-2.1-1.5-4.6-3.3-5.5-3.8-.9-.6-4.9-3.3-9-6-4.1-2.8-8.4-5.7-9.6-6.5-1.2-.8-4.3-2.8-6.9-4.3-2.5-1.6-4.6-3.3-4.6-3.8s-.5-.9-1.1-.9c-.7 0-3.6-1.7-6.7-3.8-3-2-6.1-4.2-7.1-4.7-.9-.6-4.9-3.3-9-6-4-2.8-8.1-5.5-9-6-6.1-3.8-10.7-7.2-11.4-8.2-.4-.7-1.4-1.3-2-1.3-.7 0-4.1-2-7.5-4.5-3.4-2.5-6.4-4.5-6.6-4.5-.8 0-9.5-6.1-10.1-7.1-.5-.8-10.7-7.7-16.6-11.4-.9-.5-7-4.6-13.5-9s-12.6-8.5-13.5-9c-.9-.6-5-3.2-9-6-4.1-2.7-8.1-5.4-9-6-.9-.5-3.5-2.4-5.9-4-2.4-1.7-5-3.5-5.9-4-.9-.6-4.3-2.8-7.6-5s-6.7-4.4-7.6-5c-.9-.5-3.6-2.4-5.9-4-7-4.8-9.4-6.4-11-7.2-.8-.3-3.1-2-5.2-3.7-6-5.1-11-8.6-12.4-8.6-.6 0-1.4-.7-1.8-1.5-.3-.8-1.4-1.5-2.5-1.5s-2.4-.6-2.8-1.3c-.8-1.2-9.9-7.7-10.8-7.7-.3 0-3.1-2-6.4-4.5-3.2-2.5-6.2-4.5-6.5-4.5-.5 0-3-1.7-13.4-9-2.3-1.6-4.6-3-5-3-.5 0-1.7-.7-2.7-1.5-1.1-.8-3.7-2.8-5.9-4.5-2.1-1.6-4.3-3-4.7-3-.5 0-3.5-2-6.8-4.5-3.2-2.5-6.2-4.5-6.5-4.5-.3 0-2.5-1.4-4.8-3-10.9-7.7-13-9-13.8-9-.5 0-2.2-1.2-3.8-2.8-1.5-1.5-5.2-4.3-8.2-6.2-3-1.9-5.9-4-6.3-4.7-.4-.7-1.7-1.3-2.7-1.3-1 0-2.3-.6-2.7-1.3-.7-1.1-8-6.3-10.8-7.7-2.8-1.4-10.1-6.6-10.8-7.7-.4-.7-1.7-1.3-2.7-1.3-1 0-2.3-.7-2.8-1.5-.9-1.7-9.7-2.9-12.2-1.7zm4.5 154.2c.9 1.4 11 8 12.4 8 .6 0 1.1.5 1.1 1 0 .6.8 1.3 1.8 1.7.9.3 3.3 1.8 5.2 3.2 1.9 1.4 4.3 3 5.2 3.6.9.5 5 3.2 9 6 4 2.7 8 5.4 8.9 6 .9.5 5 3.2 9 6 4.1 2.7 8.2 5.4 9.1 6 .9.5 7 4.6 13.5 9s12.5 8.4 13.4 9c.9.5 5 3.2 9 6 4.1 2.7 8.2 5.4 9.1 6 .9.5 7 4.6 13.5 9s12.5 8.4 13.4 9c5.1 3.2 9.8 6.5 10.3 7.4.8 1.2 9.4 7.1 10.4 7.1.5 0 1.7.7 2.7 1.5 1.1.8 3.7 2.8 5.9 4.5 2.1 1.6 4.5 3 5.2 3 .8 0 1.4.5 1.4 1 0 .6.8 1.3 1.8 1.7.9.3 3.3 1.9 5.3 3.5 2 1.5 3.9 2.8 4.3 2.8.3 0 2.5 1.4 4.8 3 10.7 7.5 12.9 9 13.6 9 .5 0 1.7.7 2.7 1.5 1.1.8 3.7 2.8 5.9 4.5 2.1 1.6 4.5 3 5.2 3 .8 0 1.4.5 1.4 1 0 .6.8 1.4 1.8 1.8 1.6.7 14.1 8.9 22.8 15.1 2.3 1.6 5.1 3.2 6.2 3.5 1.1.4 2.3 1.3 2.6 2.1.3.8 1 1.5 1.7 1.5.6 0 2.4 1.1 4.1 2.5 1.6 1.4 3.6 2.5 4.4 2.5.8 0 1.4.5 1.4 1 0 .6.8 1.4 1.8 1.8 1.6.7 14 8.9 23 15.2 2.3 1.6 4.7 3 5.2 3s1.6 1 2.4 2.3c1.3 1.9 1.5 21 1.5 150.1 0 94-.4 148.6-1 149.8-.9 1.7-11.6 1.8-291.7 1.8-159.9 0-291.7-.3-293-.6l-2.2-.6V505.1c.1-157.6-.1-153.1 4.3-153.1.9 0 1.9-.5 2.2-1 .6-.9 5-4.2 10.4-7.5.9-.6 4.9-3.3 9-6 4.1-2.8 8.4-5.7 9.6-6.5 1.2-.8 4.3-2.8 6.9-4.3 2.5-1.6 4.6-3.3 4.6-3.8s.7-.9 1.5-.9 2.9-1.3 4.7-2.8c1.8-1.5 4.4-3.6 5.8-4.5 5.3-3.6 10.6-7.2 12.1-8.2.9-.5 5-3.2 9-6 4.1-2.7 8.2-5.4 9.1-6 1-.5 7.1-4.6 13.5-9 6.5-4.4 12.5-8.5 13.4-9 .9-.6 5-3.2 9-6 4.1-2.7 8.2-5.4 9.1-6 6.1-3.6 18.8-12.7 18.8-13.5 0-.6.9-1 2-1 1 0 2.3-.6 2.7-1.3.7-1.2 11.9-9.1 17.4-12.3 1-.6 2.7-1.8 3.7-2.7 1-1 2.6-1.7 3.5-1.7.9 0 2-.6 2.4-1.3.4-.7 3.1-2.7 5.8-4.5 2.8-1.7 5.7-3.8 6.6-4.7.9-.8 2.3-1.5 3.2-1.5.9 0 2-.6 2.4-1.3.9-1.5 10-7.7 11.2-7.7.4 0 1.8-1.1 3.1-2.5s2.9-2.5 3.5-2.5c.7 0 2-.9 3-2s2.3-2 3-2c.6 0 2-.7 3-1.5 1.1-.8 3.7-2.8 5.9-4.5 2.1-1.6 4.4-3 5.1-3 .7 0 1.5-.7 1.9-1.5.3-.8 1.3-1.5 2.2-1.5.8 0 3-1.4 4.8-3.1 1.8-1.7 4.2-3.6 5.4-4.2 1.1-.7 4.1-2.7 6.7-4.5 2.5-1.7 4.8-3.2 5.1-3.2.3 0 3.2-2 6.4-4.5s6.1-4.5 6.4-4.5c1 0 10.1-6.5 10.9-7.8 1-1.4 3.3-1.6 4.2-.2z"/>
  <path fill="#3D3F41" d="M293.2 327.2c-1.7 1.7-1.7 122.9 0 124.6 1.7 1.7 305.9 1.7 307.6 0 .9-.9 1.2-9.4 1.2-31.9 0-25.9-.2-30.8-1.5-31.9-1.2-1-1.5-6.1-1.7-31.4l-.3-30.1-152-.3c-117.5-.1-152.4.1-153.3 1zm2.1 147.5c-1 .4-1.3 13.8-1.3 62.3 0 60.2.1 62 1.9 63 1.3.7 50.8 1 152.9 1 126.2 0 151.1-.2 152.1-1.4.8-.9 1-18.3.9-63.2l-.3-61.9-152.5-.2c-83.9-.1-153.1.1-153.7.4zM70.5 797.9c-.9 1.6-.7 63.3.3 64.3.5.5 11.4.7 24.3.6l23.4-.3v-5l-20-.6c-11-.3-20.1-.6-20.2-.7-.2-.1-.3-4.9-.3-10.7 0-9.5.2-10.5 2.1-11.5 1.2-.7 7.5-1.1 16.2-1 7.8.1 14.7.1 15.4.1 2.1-.2 3.5-3.9 2.3-6.1-1-1.9-2.1-2-17.3-2-11.4 0-16.7-.4-17.5-1.2-.7-.7-1.2-4.3-1.2-9 0-6.6.3-7.9 1.9-8.8 1.2-.6 9.2-1 19.1-1h17.1l-.3-3.8-.3-3.7-22.2-.3c-13.5-.1-22.4.1-22.8.7zm80 .3c-1.1.6-2.7 1.5-3.5 1.9-.8.5-3.1 1.6-5 2.4-1.9.9-4.3 2.3-5.3 3.3-5 4.4-10.6 23.5-8.6 29 .5 1.3.9 3.6.9 5.2s.5 3.2 1 3.5c.6.3 1 1.7 1 2.9 0 1.3.7 2.9 1.5 3.6.8.7 1.5 2 1.5 2.9 0 3.2 7.5 9.1 13.5 10.6 6.7 1.8 16.9 1.9 22.8.3 4.6-1.2 8.7-.6 10.9 1.5.7.7 2.8 2.1 4.6 3 3.1 1.5 3.6 1.5 5.8.1 1.3-.9 2.4-2 2.4-2.5 0-1.1-4.1-3.9-6-3.9-2.4-.1-6.3-3.8-5.6-5.5.3-.8 1.2-1.5 2-1.5 1.8 0 4.6-4.9 4.6-7.9 0-1.1.5-2.3 1-2.6.6-.4 1-6 1-13.4 0-12.7 0-12.8-3-16.6-1.6-2.1-3-4.3-3-4.9 0-1.8-3.5-4.4-11.7-8.7-6.5-3.4-8.2-3.9-14.1-3.8-3.7 0-7.6.5-8.7 1.1zm14.5 8.3c1.4.8 3.5 1.4 4.6 1.5 2.6 0 10 7.8 12 12.5 3.3 8.1.9 25-4.4 30.3-2.8 2.8-3.3 2.7-6.2-.3-2.6-2.8-4.6-3.1-8.5-1.3-2.2 1-2.6 1.7-2.1 3.9.6 3.1-1 3.9-7.9 3.9-3.6 0-4.5-.5-7.6-4.3-6-7.2-6.9-9.9-6.9-21.2 0-6.6.5-11.5 1.4-13.6 4.1-9.7 17.9-15.8 25.6-11.4zm40.2-8.3c-1.5 1.5-1.7 50.4-.2 51.3.6.3 1 1.3 1 2.1 0 2.5 6.2 9.5 10.2 11.5 2.9 1.5 5.9 1.9 13.2 1.9 5.2 0 9.8-.4 10.1-1 .3-.6 2.1-1 4-1 2.7 0 4-.8 6.9-4.2 2-2.3 3.6-5.2 3.6-6.4 0-1.3.5-2.6 1-2.9 1.4-.8 1.3-48 0-50.6-1.3-2.4-6.5-2.6-7.4-.3-.3.9-.6 12.7-.6 26.4v24.8l-4 3.6c-4 3.6-4.1 3.6-12.8 3.6-10.1 0-10.8-.4-14.7-7.4l-2.7-5 .1-21.4c0-11.8-.2-22.6-.5-23.9-.5-1.7-1.3-2.3-3.3-2.3-1.5 0-3.2.5-3.9 1.2zm85.1.5c-.3 1-1.1 2.5-1.8 3.3-1.3 1.7-4.5 10-4.5 11.8 0 1-1 3.4-7.1 17-1 2.3-1.9 5-1.9 5.9 0 .8-.9 3.1-2 4.9-1.2 1.8-2.3 4.3-2.6 5.6-.3 1.3-.8 3.4-1.1 4.8-.3 1.4-1.2 3.4-1.9 4.5-1.9 2.6-1.8 6.1.2 6.9 1.9.7 7.4-2 7.4-3.7 0-.6 1.6-4.5 3.7-8.5l3.6-7.2h25.8l2 4.5c1.1 2.4 2.4 4.7 2.9 5 .4.3 1.1 1.8 1.5 3.4.3 1.6 1.4 3.6 2.3 4.4 2 1.7 7 2.8 7.7 1.7.6-1-1.5-7.1-3.1-9.1-.8-.8-1.4-2.3-1.4-3.1 0-.9-1.1-3.8-2.4-6.5-1.3-2.6-2.7-6.2-3.1-8-.3-1.7-1.3-3.7-2.1-4.4-.8-.6-1.4-2-1.4-3s-.4-2-.9-2.3c-.5-.3-1.2-2.1-1.5-4-.4-1.9-1.3-3.9-2.1-4.6-.8-.7-1.5-2.2-1.5-3.4 0-1.2-1.7-5.5-3.8-9.6-3.4-6.7-4.1-7.5-7-7.8-2.4-.2-3.4.1-3.9 1.5zm5.7 13.2c0 2.2.6 4.4 1.5 5.1.8.7 1.5 2.1 1.5 3.2s.6 3.2 1.4 4.6c.7 1.5 2.3 4.7 3.6 7 1.4 2.8 1.9 4.7 1.3 5.3-.5.5-5.4.8-10.9.7-10.6-.3-10.4-.2-8.9-5.8.4-1.4 1-4.2 1.5-6.3.4-2.1 1.3-4.4 1.9-5 .6-.6 1.1-2.1 1.1-3.4 0-1.3.4-3.1.9-4.1.5-.9 1.2-2.5 1.5-3.5.3-.9 1.2-1.7 2.1-1.7 1.1 0 1.5 1.1 1.5 3.9zm36.6-13.4c-.9 2.4-.7 61.8.2 63.3.7.9 5.6 1.2 21.3 1l20.4-.3v-5L358 857l-16.5-.5-.5-29.5-.5-29.5-3.6-.3c-2.6-.2-3.8.1-4.3 1.3zm80.1-.8c-.4.3-.7 14.9-.7 32.4 0 30.8.1 31.9 2 32.9 1.4.8 2.6.8 4 0 1.8-1 2-2.1 2-14.5 0-12.6.1-13.5 2.1-14.5 1.3-.7 7.2-1 16.5-.8 11.5.2 14.7.6 15.4 1.8.5.8 1 7.5 1 14.7 0 9.9.3 13.3 1.3 13.4 3.3.3 7.3-.4 7.9-1.5.9-1.3 1.1-60.7.2-63-.4-1.1-1.9-1.6-5-1.6H455v12.1c0 6.6-.5 12.9-1 14-1 1.7-2.3 1.9-16.3 1.9-10.6 0-15.7-.4-16.5-1.2-.8-.8-1.2-5-1.2-12.4 0-6.2-.3-11.9-.6-12.8-.6-1.6-5.4-2.2-6.7-.9zm87.8.5c-4 1.4-15.5 7.2-15.5 7.8 0 .3-1.6 3-3.5 6-2.9 4.4-3.5 6.4-3.5 10.7 0 2.8-.4 5.5-1 5.8-1.3.8-1.3 3.9-.1 7.9.5 1.7 1.5 5.1 2.2 7.6 1.9 7.3 3.5 10.3 8.2 14.8 4.8 4.7 6 5.1 18.6 5.9 15.2.9 25.7-3.9 29.6-13.7.4-.8 1.6-3.3 2.7-5.5 1.8-3.6 2-5.5 1.7-15.6-.3-8.8-.8-12.1-2.1-13.9-1-1.4-3-4.3-4.5-6.5-2.6-3.7-7.5-7-16.2-11-3.7-1.7-12-1.8-16.6-.3zm13.1 8.3c1 .8 2.8 1.5 3.9 1.5 2.4.1 8.8 5.8 11.5 10.3 1.6 2.6 2 5.1 2 12.6 0 10.8-1.8 16-7.8 22.3l-3.6 3.8h-11.3c-7.8 0-11.5-.4-12.2-1.3-.6-.6-2.3-2.8-3.9-4.7-5.9-7.3-6.2-8.3-6.2-18.7 0-5.4.6-11.4 1.3-13.3 1.5-4.3 7.4-11 9.7-11 1 0 2.3-.7 3-1.5 1.7-2 10.9-2 13.6 0zm40.1-8.8c-.4.3-.7 12.1-.7 26 0 21.8.2 25.9 1.7 28.6.9 1.8 1.9 4.5 2.3 6.2.4 2.4 1.2 3.1 3.5 3.3 1.6.2 3.8 1 4.9 1.8 2.4 1.7 21.1 2 22.1.4.3-.6 1.6-1 2.9-1 1.3 0 3.1-.9 4.1-2 1-1.1 2.3-2 3-2 1.8 0 4.5-3.4 4.5-5.6 0-1.1.5-2.5 1-3 .7-.7.9-10.4.8-27l-.3-25.9h-7l-.5 25.7-.5 25.7-3.4 3.8c-3.2 3.6-3.6 3.8-10.7 4.1-12.2.7-13.6.1-17.3-6.8l-3.1-6v-21.9c0-12.1-.3-22.6-.6-23.5-.6-1.6-5.4-2.2-6.7-.9zm80.8.5c-8.5 3-12 5.6-14.1 10.6-2 4.9-1.8 8.8 1 14.7 2 4.1 3.3 5.5 6.3 6.7 8.2 3.3 14 4.8 18.9 4.8 3.4 0 5.6.5 6.4 1.5.7.8 1.8 1.5 2.4 1.5.7 0 2.4 1.3 3.9 2.8 4 4.1 3.8 10.1-.4 13.6-2.8 2.4-3.8 2.6-12.4 2.6-13.7 0-18.6-2.5-20.7-10.8-1-4.2-1.2-4.3-4.7-4-3.3.3-3.6.6-3.9 3.5-.2 1.8.4 4.3 1.2 5.5.9 1.2 1.6 3 1.6 3.8 0 1.8 4.5 6.4 7.3 7.3.9.4 1.7 1.1 1.7 1.7 0 .6 5.1 1 14.2 1 15.4 0 13.9.5 21.4-6.8 1.9-1.8 3.4-4.1 3.4-4.9 0-.9.7-2.4 1.6-3.4 1.6-1.8 1.2-5.9-.7-5.9-.5 0-.9-1.1-.9-2.4 0-3.2-3.8-9.6-5.6-9.6-.8 0-3.7-1.1-6.6-2.5-2.8-1.4-6.2-2.5-7.5-2.5-3 0-11-2-15.1-3.7-3.1-1.4-3.9-2.5-5.6-8-.8-2.6 2-5.6 8.1-8.4 5-2.3 8.8-2.4 12.7-.4 1.5.8 3.6 1.5 4.5 1.5 1 0 2.9 1.7 4.2 3.7 2.6 4 6.5 6 9.5 4.9 1.3-.5 1.5-.9.6-1.8-.7-.7-1.2-2-1.2-3 0-6.2-7.2-12.8-13.9-12.8-1.6 0-3.3-.5-3.6-1-.8-1.3-10.1-1.1-14 .2zm49.2-.5c-1.2 1.1-.8 63.8.4 65 .6.6 2.4.7 4.2.4l3.2-.7.3-30.4c.1-16.8 0-31.5-.3-32.8-.4-1.7-1.2-2.2-3.9-2.2-1.8 0-3.6.3-3.9.7zm24 0c-.4.3-.7 15.1-.7 32.9 0 27.8.2 32.3 1.5 32.8 2 .7 6.5-1 6.5-2.6.1-.7 0-9.9 0-20.4-.1-19.8 1-27.1 3.2-22.9.6 1.1 1.4 2.2 1.8 2.5 1 .8 8 10.9 8 11.6 0 .4 1.5 2.4 3.3 4.5 5 5.9 7.7 9.6 7.7 10.7 0 .5.9 1.7 2 2.7 1.1 1 2 2.5 2 3.4 0 .9 1.3 2.8 2.8 4.1 1.5 1.4 3.1 3.3 3.5 4.3.5 1.5 1.6 1.8 5.4 1.5l4.8-.3v-65h-7l-.3 25.5c-.2 23.6-1 30.4-2.8 25.4-.4-1-2-3.5-3.6-5.4-1.5-1.9-2.8-4.1-2.8-4.9 0-.8-.7-2.3-1.7-3.3-.9-1-2.1-2.7-2.7-3.7-2.2-3.8-11-16.6-12.3-17.9-.7-.7-1.3-1.9-1.3-2.6 0-.7-1.3-3-3-5.2-1.6-2.1-3-4.4-3-5.1 0-.7-.9-1.7-1.9-2.3-2.2-1.1-8.4-1.4-9.4-.3zm89.3.3c-.8.5-2.9 1-4.6 1-4.3 0-11.3 7.3-15.9 16.4-3.2 6.3-3.5 7.6-3.5 15.6 0 8.4 1 12.1 4.9 19 .5.8 1.6 3.1 2.6 5 3 6.3 11.6 9.2 28.6 9.7l11.7.4 4.3-3.1c2.4-1.7 5.6-3.9 7.2-4.8l2.7-1.7-.2-13-.3-13h-27v8l9.5.5 9.5.5v12.8l-5 2.8c-4.6 2.5-5.9 2.8-15.5 2.8l-10.6.1-4.6-4.8c-5-5.2-6.8-8.1-7.4-12.1-.2-1.4-.6-4.3-1-6.4-.3-2-.2-4.3.4-5 .5-.6 1.2-3.7 1.6-6.7 1.1-8.2 3.4-11.4 10.6-14.5.8-.3 3.1-1.4 5-2.4 2.4-1.3 4-1.6 5.2-1 .9.5 3.2.9 5.1.9 1.9 0 4 .7 4.7 1.5.7.8 1.9 1.5 2.7 1.5 2.1 0 6.3 4.1 6.3 6.2 0 2.6 5.3 5 8.4 3.8 1.4-.5 2.6-1.1 2.6-1.3 0-3.8-12.2-16.3-16.8-17.3-1.5-.3-3.7-1-5-1.5-3-1.2-14.3-1.1-16.2.1zM94 879c-.8.5-2.5 1-3.7 1-3.5 0-9.2 3.1-14.1 7.7-2.5 2.4-4.8 4.3-5.2 4.3-1 0-5.7 10.1-6.5 14-.4 1.9-.9 8-1.2 13.6l-.4 10.1 4 7.7c2.3 4.2 4.1 8.2 4.1 8.9 0 2.1 4.3 5.4 12.4 9.6 7.3 3.9 8.1 4.1 16.6 4.1 4.9 0 9.2-.4 9.5-1 .3-.5 2.4-1 4.5-1s4.3-.6 4.7-1.3c.4-.7 2.7-2.5 5.1-4 3.2-2.1 5-4.3 7.2-9.1 1.7-3.4 3-7 3-7.9 0-.9.4-1.8.9-2.1 1-.7 2.2-7.3 2.3-13.1.1-5.6-1.3-15.5-2.3-16.1-.5-.3-.9-1.3-.9-2.2 0-2.2-3.3-8.7-5.6-11.3-.9-1.1-2.4-1.9-3.4-1.9-.9 0-2.7-1.3-4-3-1.9-2.2-3.4-2.9-6.1-3-2 0-4.2-.6-4.8-1.4-.7-.8-3.5-1.6-6.4-1.8-2.9-.2-5.9-.7-6.7-1.1-.8-.4-2.2-.2-3 .3zm8.5 9.7c1.7.3 4.4 1.1 6.2 1.9 1.7.8 3.7 1.4 4.5 1.4 3.4 0 11.8 13.3 11.8 18.7 0 1.4.8 3.8 1.7 5.4 1.6 2.7 1.6 3.1 0 5.8-1 1.7-1.7 5.1-1.7 8.3-.1 4.1-.7 6.2-2.8 9.3-1.5 2.2-3.8 4.5-5 5.1-1.2.6-3 1.8-4 2.7-1 1-2.6 1.7-3.6 1.7-.9 0-2.7.5-3.9 1.2-2.6 1.3-8.6 1.3-10.1-.2-.5-.5-2.6-1-4.6-1-2.4 0-4.3-.7-5.5-2-1-1.1-2.4-2-3.1-2-.6 0-1.7-1.2-2.3-2.8-.7-1.5-2.3-4.7-3.6-7.2-4.2-7.9-3.1-26 2-33.4.8-1.1 1.5-2.7 1.5-3.5 0-1.8 3.9-6.1 5.6-6.1.6 0 1.7-.7 2.4-1.5s2.5-1.5 4.1-1.5c1.5 0 3.1-.5 3.4-1.1.4-.6 1.4-.7 2.4-.3.9.4 3 .9 4.6 1.1zm219.5-9.6c-1.4.6-4.3 1.8-6.5 2.7-2.2.9-4.4 2.2-4.8 2.9-.4.7-1.4 1.3-2 1.3-3.9 0-11.4 10.9-12.8 18.5-.4 2.2-1.5 6.9-2.4 10.4-1.4 5.2-1.5 7.1-.6 10.5 1.2 4.3 2.7 8 4.2 10.6 1.8 3.1 4.9 9.9 4.9 10.8 0 1.7 4.6 5.1 12.3 9.1 7.3 3.9 8.1 4.1 16.6 4.1 5 0 9.3-.5 9.6-1 .3-.6 2.2-1 4.2-1 3 0 4.5-1 10.4-6.8 3.8-3.7 6.9-7.4 6.9-8.3 0-.9.7-2.2 1.5-2.9.8-.7 1.5-2.3 1.5-3.6 0-1.2.5-2.6 1-2.9.6-.4 1-5.7 1-12.7 0-10.8-.2-12.5-2.5-17-1.4-2.7-2.5-5.6-2.5-6.3 0-2.6-4.2-8.5-6-8.5-1 0-3-1.4-4.3-3-2-2.3-3.4-3-6-3-1.9 0-4-.6-4.6-1.4-.7-.8-3.5-1.6-6.4-1.9-2.9-.3-6.3-.8-7.7-1.1-1.4-.3-3.6 0-5 .5zm11.4 9.8c2.1.5 4.3 1.4 4.9 2 .6.6 2 1.1 3 1.1 4 0 8.4 4 11.6 10.3 3 6 3.1 6.7 3.1 18.9 0 7.7-.4 12.9-1 13.3-.6.4-1.8 2.4-2.7 4.6-1 2.5-2.7 4.6-4.7 5.6-1.7.9-3.5 2.2-3.9 2.9-.4.8-2.4 1.4-4.5 1.4s-4.3.5-4.9 1.1c-1.1 1.1-6.9.8-12.7-.7-4.4-1.1-11.3-6.1-14.1-10.2-1.8-2.7-2.5-5-2.5-8.5 0-2.6-.7-6.2-1.6-7.8-1.4-2.8-1.4-3.3 0-5.4.9-1.4 1.6-4.7 1.6-7.7.1-4.6.5-5.6 3-7.8 1.7-1.3 3-3.1 3-4 0-1.7 3.2-5.1 6-6.4.8-.4 3.1-1.6 5-2.6 3.5-2 4.2-2 11.4-.1zm122.3-10.2c-.5.8-1 6.7-.8 9 .1.9 3.6 1.3 12.4 1.5l12.2.3.3 33.7.2 33.8 2.5.6c5.6 1.4 5.5 2.3 5.7-34.3l.3-33.8 13.5-.5 13.5-.5.3-3.8c.6-6.8 1.2-6.7-30.9-6.7-15.8 0-29 .3-29.2.7zm149.3 1.2c-.6 1.3-1 15.4-1 38.9 0 40.7-.2 39.6 6.2 39l3.3-.3.5-29.3c.3-16 .9-29.2 1.4-29.3.5 0 1.4.8 2 1.9.6 1.1 2.5 3.8 4.1 6.2 1.7 2.4 3.5 5 4 5.9.6.8 2.4 3.5 4.1 6.1 1.7 2.5 4.3 6.8 5.8 9.7 1.6 2.8 3.5 5.4 4.2 5.7.8.3 1.4 1.5 1.4 2.6s.7 2.3 1.5 2.6c.8.4 1.5 1.2 1.5 1.9 0 1 3.1 5.6 7 10.2.6.7 1.5 2.4 2 3.8.8 2.2 1.5 2.5 5.8 2.5 2.6 0 5.3-.5 6-1.2.9-.9 1.2-10.8 1.2-38.3 0-41.2 0-40.9-6-40.3l-3.5.3-.3 30c-.2 27.9-.9 35-2.9 29.9-.4-1-2.6-4.4-5-7.6-2.4-3.1-4.3-5.9-4.3-6.2 0-.3-1.5-2.8-3.3-5.4-1.8-2.6-4.6-7-6.2-9.7-1.5-2.8-3.4-5.4-4.2-5.8-.7-.4-1.3-1.7-1.3-2.7 0-1.1-.4-2-.9-2-.4 0-2.5-2.8-4.6-6.3-2.1-3.4-4.5-6.6-5.2-7-.7-.4-1.3-1.6-1.3-2.6 0-4.4-9.9-7-12-3.2zm81.1 0c-1.4 2.4-1.5 72-.1 75.5.8 2.1 1.6 2.6 4.3 2.6 1.8 0 3.8-.5 4.5-1.2 1.6-1.6 1.7-73.9.2-76.9-1.4-2.6-7.5-2.6-8.9 0zm24-.5c-.7.8-1.1 3.2-.9 5.3l.3 3.8 12.2.3 12.3.3.2 34.2.3 34.2h8l.5-34 .5-34 13-.3c7.1-.1 13.2-.7 13.5-1.2.4-.6.4-2.9.1-5.3l-.6-4.2-29.1-.3c-24.4-.2-29.3 0-30.3 1.2zm-557.9 1.4c-.9.7-1.2 9.1-1 38.8l.3 37.9h9l.3-14.9c.1-9 .7-15.5 1.4-16.3.8-1 5-1.3 17-1.3 15.6 0 16.2-.1 21-2.7 4.2-2.3 5.5-3.8 7.9-8.7 4.8-9.9 3.6-18.4-3.5-25.2-2.9-2.8-8-5.4-10.4-5.4-1.1 0-2.5-.7-3.2-1.5-1-1.2-4.5-1.5-19.4-1.5-9.9 0-18.7.4-19.4.8zm42.7 11.9c4.8 3.6 5.1 4 5.1 8.3 0 2.5-.7 5.4-1.5 6.4-.8 1.1-1.5 2.8-1.5 3.8s-1.6 2.6-4 3.8c-3.3 1.7-5.9 2-16.8 2-8.6 0-13.2-.4-14-1.2-1.3-1.3-1.8-24.9-.5-26.1.3-.4 6.8-.7 14.4-.7h13.8l5 3.7zm29.6-11.5c-.3.7-.4 18.2-.3 38.8l.3 37.5 2.4.3c1.2.2 3.4.1 4.7-.2l2.4-.6v-15.4c0-13.1.2-15.5 1.6-16 .9-.3 8.4-.6 16.9-.6 14.5 0 15.5-.1 19.9-2.6 4.7-2.6 8.6-7 8.6-9.7 0-.8.7-2 1.5-2.7 4-3.3.3-16.8-6.1-22.3-7-6-12-7.1-32.7-7.5-14.6-.2-18.8 0-19.2 1zm42 10.8c2.1 1.6 4.2 3 4.6 3 1.3 0 1.1 10.7-.3 13.3-.6 1.2-1.4 2.9-1.8 3.7-1.6 3.6-7.1 5-19.3 5-6.5 0-12.7-.5-13.8-1-1.7-1-1.9-2.2-1.9-13.4 0-6.7.3-12.6.7-12.9.3-.4 6.8-.7 14.3-.7h13.7l3.8 3zm116.7-11.2c-.9.7-1.2 9.1-1 38.8l.3 37.9h9l.3-15.9c.1-9.7.7-16.5 1.3-17.3.7-.8 3.5-1.3 7.5-1.3 5.2 0 7.5.6 12.4 3.2 3.3 1.7 6.5 3.6 7 4.3 1.8 2.1 8 14.6 8 16 0 .8.6 1.8 1.3 2.2.8.4 2.4 2.4 3.8 4.3 3.2 4.7 3.7 5 8.4 5 6.1 0 7-1 4.8-5.3-4.7-9.2-9.7-16.9-11.8-18.3-1.3-.9-2.8-2.8-3.3-4.3-.6-1.7-2.4-3.4-4.8-4.6-3.4-1.6-3.6-1.9-1.9-2.6 4.2-1.6 5.1-2 9-4.2 2.1-1.2 4.6-3.6 5.5-5.2.8-1.7 2.1-3.4 2.8-3.8.7-.5 1.2-3.2 1.2-7.2 0-8.4-3.7-16.3-8.1-17.2-1.6-.3-3.2-1-3.5-1.4-.3-.5-1.5-.9-2.7-.9-1.2 0-3.1-.7-4.1-1.5-1.6-1.2-5.8-1.5-21-1.5-10.5 0-19.7.4-20.4.8zm41.3 9.3c.4.5 1.8 1.4 3.1 1.9 1.4.6 2.6 2 2.9 3.7.4 1.5 1 3.6 1.6 4.5 2.5 4.7.1 9.6-6.1 12.8-3.4 1.7-5.9 2-18.4 2-12.2 0-14.5-.2-15-1.6-.8-2.1-.8-22.9.1-23.7 1.1-1.2 31.1-.8 31.8.4zm103.2-9.4c-1.1 1.1-.8 59.1.3 59.8.6.3 1 1.3 1 2.2 0 2.9 6.7 11.8 10.2 13.4 6.5 3.2 11.2 4.1 19.3 3.6 11.6-.8 15.7-1.7 18.3-4 2.7-2.5 7.2-10 7.2-12 0-.8.7-2 1.5-2.7 1.3-1.1 1.5-5.4 1.3-30.9l-.3-29.6h-8l-.3 24.5c-.1 14.3-.6 24.8-1.2 25.4-.6.6-1 2.8-1 5 0 2.3-.9 5.5-2 7.3-3.1 5.1-6.5 6.3-18.2 6.3h-10.4l-3.7-3.8-3.7-3.8v-29.5c0-21.6-.3-29.8-1.2-30.7-1.3-1.3-8-1.7-9.1-.5zm245.8.4c-.4.5 0 1.8.8 2.7.7.9 1.7 2.5 2 3.4.4 1 1.1 1.8 1.7 1.8.5 0 1 .6 1 1.4 0 .7 1.4 3.1 3 5.2 1.7 2.2 3.7 4.8 4.5 5.9.8 1 1.5 2.2 1.5 2.7 0 .4 1.4 2.7 3 5 7.6 10.8 9 13 9 13.7 0 .5.7 1.4 1.5 2.1 1.1.9 1.5 4.5 1.7 16.9l.3 15.6 3.9.3c2.1.2 4.4-.2 5-.8.7-.7 1-5.6.9-13.8-.2-13.9.6-17.9 4.7-23.2 1.5-1.9 3-4.2 3.3-5 .8-1.6 2.3-3.9 7.2-11 4.9-7 6.4-9.4 7.2-11 .4-.8 2-3.1 3.6-5.2 3.7-4.6 3.3-7.2-1.2-7.6-3.3-.3-8 2.7-8.2 5.2 0 .6-1.6 3.1-3.5 5.6-1.8 2.5-4.6 6.3-6.1 8.5s-3.3 4.4-4 4.8c-.7.4-1.3 1.4-1.3 2.2 0 2.4-4.1 9.5-5.5 9.5-1.2 0-4.1-3.3-7-8.1-.5-.9-2.3-3.6-4-5.9-3-4.3-7.1-11.2-9.7-16-2.3-4.3-5-5.9-10-6-2.6 0-5 .5-5.3 1.1z"/>
</svg>
