<?xml version="1.0" encoding="UTF-8" standalone="no"?>
<svg width="34px" height="46px" viewBox="0 0 34 46" version="1.1" xmlns="http://www.w3.org/2000/svg" xmlns:xlink="http://www.w3.org/1999/xlink">
    <!-- Generator: sketchtool 3.8.3 (29802) - http://www.bohemiancoding.com/sketch -->
    <title>8-All_members_vatted</title>
    <desc>Created with sketchtool.</desc>
    <defs></defs>
    <g id="3.0-Membership" stroke="none" stroke-width="1" fill="none" fill-rule="evenodd">
        <g id="3.0_Membership@2x" transform="translate(-543.000000, -1000.000000)">
            <g id="8-All_members_vatted" transform="translate(545.000000, 1002.000000)">
                <path d="M30,1.99749218 C30,0.894307712 29.1021596,4.98012588e-15 28.008383,4.77920237e-15 L1.99161703,0 C0.891677316,-2.02055647e-16 3.55271368e-15,0.896660339 3.55271368e-15,1.99749218 L-3.55271368e-15,40.0025078 C-3.55271368e-15,41.1056923 0.89784041,42 1.99161703,42 L28.008383,42 C29.1083227,42 30,41.1033397 30,40.0025078 L30,1.99749218 L30,1.99749218 Z" id="Path-31" stroke="#D14428" stroke-width="3"></path>
                <g id="Group" transform="translate(5.000000, 8.000000)">
                    <rect id="Rectangle-250" stroke="#D14428" stroke-width="2" fill="#FFFFFF" x="4.52380952" y="0" width="14.4761905" height="18" rx="7.23809524"></rect>
                    <g id="Group-3" transform="translate(8.142857, 9.000000)" stroke="#D14428" stroke-width="2" stroke-linecap="round" stroke-linejoin="round">
                        <path d="M0.904761905,0.197940855 L0.904761905,1.4231252" id="Path-524"></path>
                        <path d="M6.33333333,0.197940855 L6.33333333,1.4231252" id="Path-524-Copy"></path>
                    </g>
                    <path d="M13.571098,4.04038173 C13.571098,4.04038173 9.23423922,7.53824219 4.93506494,8.50605615 C4.93506494,8.50605615 5.15937748,-0.0104554795 12.4495353,9.63678098e-06 C12.4495353,9.63678098e-06 18.3350479,0.187544521 18.9999103,7.97819568 C18.9999103,7.97819568 16.337769,7.52735847 13.571098,4.04038173" id="Page-1" fill="#D14627"></path>
                    <g id="Page-1" fill="#D14627">
                        <path d="M8.2057304,0.170569129 C8.2057304,0.170569129 -8.58771212,9 5.87449567,15.4883721 L4.50378139,9.0812093 L7.24562121,4.34972093 L8.2057304,0.170569129 Z" id="Fill-1"></path>
                    </g>
                </g>
                <path d="M20.8547538,33.0789474 L10,33.0789474" id="Path-76-Copy-4" stroke="#D14428" stroke-width="2" stroke-linecap="round" stroke-linejoin="round"></path>
            </g>
        </g>
    </g>
</svg>