<?xml version="1.0" encoding="UTF-8" standalone="no"?>
<svg width="41px" height="47px" viewBox="0 0 41 47" version="1.1" xmlns="http://www.w3.org/2000/svg" xmlns:xlink="http://www.w3.org/1999/xlink">
    <!-- Generator: sketchtool 3.8.3 (29802) - http://www.bohemiancoding.com/sketch -->
    <title>9-cleaning_services</title>
    <desc>Created with sketchtool.</desc>
    <defs></defs>
    <g id="3.0-Membership" stroke="none" stroke-width="1" fill="none" fill-rule="evenodd">
        <g id="3.0_Membership@2x" transform="translate(-938.000000, -1000.000000)" stroke="#D14428">
            <g id="9-cleaning_services" transform="translate(939.000000, 995.000000)">
                <g id="Group-16" transform="translate(21.433594, 25.304688) rotate(-326.000000) translate(-21.433594, -25.304688) translate(11.433594, 2.304688)">
                    <path d="M16.5406336,33.0751584 C16.2129585,29.7346344 13.4096852,27.125 10,27.125 C6.59031484,27.125 3.78704149,29.7346344 3.45936641,33.0751584 L0.923497268,46 L10,46 L19.0765027,46 L16.5406336,33.0751584 Z" id="Oval-6" stroke-width="3" stroke-linecap="round" stroke-linejoin="round"></path>
                    <path d="M2.75680226,34.225 L17.5619336,34.225" id="Path-98" stroke-width="2"></path>
                    <path d="M10,27.0185181 L10,0.457610693" id="Path-99" stroke-width="3" stroke-linecap="round" stroke-linejoin="round"></path>
                </g>
                <path d="M26,40.3409424 L30.7851984,40.3409424 C30.7851984,40.3409424 33.3681641,40.341392 33.3681641,37.670696 C33.3681641,35 30.7851982,35 30.7851982,35" id="Path-100" stroke-width="2" stroke-linecap="round" stroke-linejoin="round"></path>
                <path d="M24.8129883,50.3409424 L35.7851984,50.3409424 C35.7851984,50.3409424 38.3681641,50.341392 38.3681641,47.670696 C38.3681641,45 35.7851982,45 35.7851982,45" id="Path-100-Copy" stroke-width="2" stroke-linecap="round" stroke-linejoin="round" transform="translate(31.590576, 47.670471) scale(1, -1) translate(-31.590576, -47.670471) "></path>
            </g>
        </g>
    </g>
</svg>