<?xml version="1.0" encoding="UTF-8" standalone="no"?>
<svg width="38px" height="50px" viewBox="0 0 38 50" version="1.1" xmlns="http://www.w3.org/2000/svg" xmlns:xlink="http://www.w3.org/1999/xlink">
    <!-- Generator: Sketch 3.8.3 (29802) - http://www.bohemiancoding.com/sketch -->
    <title>1-Flexible_terms</title>
    <desc>Created with Sketch.</desc>
    <defs></defs>
    <g id="Page-1" stroke="none" stroke-width="1" fill="none" fill-rule="evenodd">
        <g id="1-Flexible_terms" transform="translate(2.000000, 1.000000)">
            <path d="M0.106197206,45.4330436 C0.106197206,46.5353011 1.00060286,47.4288574 2.11164356,47.4288574 L32.1946957,47.4288574 C33.3022731,47.4288574 34.2001421,46.5247058 34.2001421,45.4330436 L34.2001421,21.16238 C34.200142,12.7002113 26.5679525,5.84026809 17.1531696,5.84026809 C7.73838672,5.84026809 0.106197194,12.7002113 0.106197194,21.16238 L0.106197206,45.4330436 Z" id="Rectangle-34" stroke="#3D3F41" stroke-width="3" stroke-linecap="round" stroke-linejoin="round"></path>
            <path d="M22.0237332,4.94749285 C22.0237332,2.2452877 19.8431076,0.0547176045 17.1531696,0.0547176045 C14.4632316,0.0547176045 12.2826061,2.2452877 12.2826061,4.94749285" id="Oval-37" stroke="#3D3F41" stroke-width="2" stroke-linecap="round" stroke-linejoin="round"></path>
            <rect id="Rectangle-101" stroke="#3D3F41" stroke-width="2" stroke-linecap="round" stroke-linejoin="round" x="4.97676074" y="27.8577567" width="24.3528177" height="14.6783257" rx="2"></rect>
            <path d="M4.97676074,32.3624557 L29.3295785,32.3624557" id="Path-129" stroke="#3D3F41" stroke-width="2" stroke-linecap="round" stroke-linejoin="round"></path>
            <rect id="Rectangle-19-Copy-3" fill="#3D3F41" x="14.9646995" y="12.951337" width="4.62491673" height="4.59346144"></rect>
        </g>
    </g>
</svg>