<?xml version="1.0" encoding="UTF-8" standalone="no"?>
<svg width="47px" height="47px" viewBox="0 0 47 47" version="1.1" xmlns="http://www.w3.org/2000/svg" xmlns:xlink="http://www.w3.org/1999/xlink">
    <!-- Generator: sketchtool 3.8.3 (29802) - http://www.bohemiancoding.com/sketch -->
    <title>206C71D6-D401-45E6-B877-3A692760DEBF</title>
    <desc>Created with sketchtool.</desc>
    <defs>
        <path d="M22.2760909,0.696434591 C22.9993728,-0.0268472389 24.1718964,-0.0269951915 24.8953262,0.696434591 L46.4749825,22.2760909 C47.1982643,22.9993728 47.1984123,24.1718964 46.4749825,24.8953262 L24.8953262,46.4749825 C24.1720443,47.1982643 22.9995207,47.1984123 22.2760909,46.4749825 L0.696434591,24.8953262 C-0.0268472389,24.1720443 -0.0269951915,22.9995207 0.696434591,22.2760909 L22.2760909,0.696434591 L22.2760909,0.696434591 Z" id="path-1"></path>
        <mask id="mask-2" maskContentUnits="userSpaceOnUse" maskUnits="objectBoundingBox" x="0" y="0" width="46.8635816" height="46.8635816" fill="white">
            <use xlink:href="#path-1"></use>
        </mask>
    </defs>
    <g id="0.0-Homepage" stroke="none" stroke-width="1" fill="none" fill-rule="evenodd">
        <g id="0.0_Homepage-1@2x" transform="translate(-830.000000, -1422.000000)">
            <g id="5-shared-supplies" transform="translate(830.000000, 1422.000000)">
                <use id="Rectangle-287" stroke="#3D3F41" mask="url(#mask-2)" stroke-width="6" xlink:href="#path-1"></use>
                <g id="Group-36" transform="translate(31.684288, 3.237254)" stroke-linecap="round" stroke="#3D3F41" stroke-linejoin="round">
                    <g id="Group-32">
                        <path d="M4.36038309,23.142923 L4.36038309,38.4504661" id="Path-589" stroke-width="3"></path>
                        <path d="M4.7511617,0 L4.7511617,23.1232437 L-3.35762558e-22,20.3484544 L0,6.44393501 C0,6.44393501 0,1.17372702 4.7511618,0" id="Path-589-Copy" stroke-width="2" fill="#EEEFF0"></path>
                    </g>
                </g>
                <g id="Group-35" transform="translate(6.711185, 2.312324)" stroke="#3D3F41">
                    <path d="M8.30178761,8.32436772 C8.31670794,8.56731632 8.32436772,8.81420379 8.32436772,9.06431152 C8.32436772,12.7422486 6.66794711,15.7238057 4.62464874,15.7238057 C2.58135036,15.7238057 0.924929747,12.7422486 0.924929747,9.06431152 C0.924929747,8.81420379 0.932589527,8.56731632 0.947509863,8.32436772 L8.30178761,8.32436772 Z" id="Oval-24" stroke-width="2" fill="#EEEFF0"></path>
                    <path d="M4.62464874,16.6487354 L4.62464874,39.3281835" id="Path-589-Copy-2" stroke-width="3" stroke-linecap="round" stroke-linejoin="round"></path>
                    <g id="Group-33" stroke-width="2" stroke-linecap="round" stroke-linejoin="round">
                        <path d="M0.924929747,9.31218637 L0.924929747,0.800301312" id="Path-592"></path>
                        <path d="M8.32436772,9.43681481 L8.32436772,0.924929747" id="Path-592-Copy"></path>
                    </g>
                    <path d="M4.62464874,7.58695531 L4.62464874,0.924929747" id="Path-592-Copy-2" stroke-width="2" stroke-linecap="round" stroke-linejoin="round"></path>
                </g>
                <rect id="Rectangle-19-Copy-3" fill="#3D3F41" x="21.2343999" y="21.2283743" width="4.27772306" height="4.24862913"></rect>
            </g>
        </g>
    </g>
</svg>