<?xml version="1.0" encoding="utf-8"?>
<!-- Generator: Adobe Illustrator 17.0.0, SVG Export Plug-In . SVG Version: 6.00 Build 0)  -->
<!DOCTYPE svg PUBLIC "-//W3C//DTD SVG 1.1//EN" "http://www.w3.org/Graphics/SVG/1.1/DTD/svg11.dtd">
<svg version="1.1" id="Layer_1" xmlns="http://www.w3.org/2000/svg" xmlns:xlink="http://www.w3.org/1999/xlink" x="0px" y="0px"
	 width="45px" height="45px" viewBox="0 0 45 45" enable-background="new 0 0 45 45" xml:space="preserve">
<path fill="#728788" d="M39.363,0.564H5.614C2.529,0.564,0,3.003,0,6.046v32.887c0,3.053,2.529,5.503,5.614,5.503h33.749
	c3.095,0,5.637-2.45,5.637-5.503V6.046C45,3.003,42.459,0.564,39.363,0.564z M22.492,17.022c5.185,0,5.615,5.467,5.615,5.467
	s0.183,5.491-5.615,5.491c-5.79,0-5.612-5.491-5.612-5.491S17.332,17.022,22.492,17.022z M39.363,36.209
	c0,1.528-1.238,2.724-2.815,2.724H8.441c-1.572,0-2.827-1.195-2.827-2.724v-13.72c0-1.5,1.255-2.743,2.827-2.743h3.203
	c-0.24,0.876-0.391,1.8-0.391,2.743c0,6.072,5.029,10.972,11.239,10.972c6.213,0,11.232-4.9,11.232-10.972
	c0-0.942-0.135-1.866-0.381-2.743h3.205c1.577,0,2.815,1.243,2.815,2.743V36.209z M39.363,11.517c0,1.509-1.238,2.738-2.815,2.738
	h-2.824c-1.526,0-2.791-1.228-2.791-2.738V8.76c0-1.495,1.264-2.714,2.791-2.714h2.824c1.577,0,2.815,1.219,2.815,2.714V11.517z"/>
</svg>
