<?xml version="1.0" encoding="utf-8"?>
<!-- Generator: Adobe Illustrator 17.0.0, SVG Export Plug-In . SVG Version: 6.00 Build 0)  -->
<!DOCTYPE svg PUBLIC "-//W3C//DTD SVG 1.1//EN" "http://www.w3.org/Graphics/SVG/1.1/DTD/svg11.dtd">
<svg version="1.1" id="Layer_1" xmlns="http://www.w3.org/2000/svg" xmlns:xlink="http://www.w3.org/1999/xlink" x="0px" y="0px"
	 width="45px" height="45px" viewBox="0 0 45 45" enable-background="new 0 0 45 45" xml:space="preserve">
<path fill="#728788" d="M45,8.762c-1.675,0.723-3.457,1.202-5.314,1.434c1.911-1.125,3.371-2.891,4.06-5.021
	c-1.782,1.046-3.752,1.786-5.849,2.199C36.199,5.601,33.788,4.5,31.154,4.5c-5.107,0-9.22,4.081-9.22,9.085
	c0,0.721,0.061,1.413,0.213,2.072C14.476,15.29,7.689,11.67,3.132,6.157c-0.793,1.36-1.262,2.915-1.262,4.59
	c0,3.146,1.646,5.934,4.099,7.549c-1.482-0.029-2.937-0.452-4.167-1.12c0,0.029,0,0.062,0,0.098c0,4.415,3.198,8.08,7.392,8.924
	c-0.752,0.206-1.572,0.303-2.421,0.303c-0.591,0-1.186-0.034-1.746-0.156c1.196,3.598,4.587,6.242,8.62,6.328
	c-3.139,2.418-7.123,3.874-11.439,3.874c-0.757,0-1.482-0.034-2.207-0.125C4.087,39.017,8.93,40.5,14.154,40.5
	c16.976,0,26.257-13.847,26.257-25.847c0-0.401-0.015-0.788-0.034-1.173C42.207,12.199,43.745,10.6,45,8.762z"/>
</svg>
