<?xml version="1.0" encoding="UTF-8" standalone="no"?>
<svg width="47px" height="22px" viewBox="0 0 47 22" version="1.1" xmlns="http://www.w3.org/2000/svg" xmlns:xlink="http://www.w3.org/1999/xlink">
    <!-- Generator: sketchtool 3.8.3 (29802) - http://www.bohemiancoding.com/sketch -->
    <title>EF6C2BCD-016B-4752-9529-E07236B9F24E</title>
    <desc>Created with sketchtool.</desc>
    <defs></defs>
    <g id="9.0-Real-Estate-Partners" stroke="none" stroke-width="1" fill="none" fill-rule="evenodd" opacity="0.5">
        <g id="9.0-Real-Estate-Partners-1@2x" transform="translate(-466.000000, -4053.000000)" fill="#3D3F41">
            <path d="M510.018621,4053.07602 L510.018621,4070.62376 C510.018621,4071.27249 509.699223,4071.77825 509.185306,4071.94422 C509.071684,4071.98107 508.955443,4071.99858 508.839727,4071.99858 C508.444144,4071.99858 508.054059,4071.79053 507.784141,4071.41755 C507.699317,4071.28268 500.569925,4059.85183 498.755637,4056.86173 C498.582062,4056.62989 498.321307,4056.52796 498.088565,4056.60402 C497.841424,4056.68374 497.69403,4056.94563 497.69403,4057.30424 L497.69403,4070.62376 C497.69403,4071.27641 497.380391,4071.78347 496.875113,4071.94631 C496.3879,4072.10392 495.848326,4071.89639 495.501962,4071.41729 C495.417138,4071.28347 488.245595,4059.85209 486.430783,4056.86173 C486.257732,4056.62963 485.996716,4056.52874 485.763712,4056.60402 C485.516833,4056.68374 485.369438,4056.94563 485.369438,4057.30424 L485.369438,4070.53908 C485.369438,4071.34907 484.734045,4071.98316 483.922982,4071.98316 L477.527421,4071.98316 C471.746832,4071.98316 469.113889,4067.80565 469.113889,4063.92375 C469.113889,4061.81421 469.846149,4059.83798 471.175842,4058.35913 C472.670731,4056.69681 474.779285,4055.81807 477.273473,4055.81807 L481.12746,4055.81807 L481.12746,4053.07602 L477.739218,4053.07602 C462.534543,4053.07602 462.661517,4074.72522 477.951016,4074.72522 L483.922982,4074.72522 C486.506444,4074.72522 488.158153,4073.24533 488.158153,4070.41231 L488.158153,4064.91539 C488.158153,4064.91539 491.503983,4070.497 492.817182,4072.65332 C495.061872,4076.33213 500.483007,4075.61336 500.440595,4071.00432 L500.440595,4064.91539 C500.440595,4064.91539 503.828836,4070.497 505.141774,4072.65332 C507.344052,4076.33213 512.765448,4075.61336 512.765448,4071.00432 L512.765448,4053.07602 L510.018621,4053.07602 Z M477.400447,4059.20729 L481.12746,4059.20729 L481.12746,4056.50731 L477.273473,4056.50731 C474.980872,4056.50731 473.050083,4057.30685 471.689759,4058.81993 C470.473951,4060.17175 469.804523,4061.98437 469.804523,4063.92375 C469.804523,4068.98757 473.807999,4071.29418 477.527421,4071.29418 L483.922982,4071.29418 C484.346839,4071.29418 484.678804,4070.96224 484.678804,4070.53908 L484.678804,4057.30424 C484.678804,4056.6414 485.013126,4056.12179 485.551129,4055.94797 C486.070282,4055.78044 486.651744,4055.98953 486.998108,4056.46837 L487.013555,4056.49163 C488.812658,4059.45716 496.002003,4070.91729 496.074261,4071.03281 C496.231866,4071.24923 496.46199,4071.3543 496.66253,4071.29053 C496.87616,4071.22152 497.003658,4070.97217 497.003658,4070.62376 L497.003658,4057.30424 C497.003658,4056.6414 497.337717,4056.12179 497.875982,4055.94797 C498.395397,4055.78044 498.976336,4055.98953 499.322962,4056.46837 L499.338146,4056.49163 C501.137512,4059.45768 508.28523,4070.91807 508.356964,4071.0336 C508.514045,4071.24923 508.760401,4071.35613 508.972984,4071.28817 C509.195254,4071.21656 509.32825,4070.96825 509.32825,4070.62376 L509.32825,4053.07602 L506.581685,4053.07602 L506.581685,4063.30874 C506.581685,4063.30874 504.972388,4060.51781 502.177127,4055.73992 C499.424017,4051.04646 494.257093,4052.99159 494.257093,4057.00836 L494.257093,4063.30874 C494.257093,4063.30874 492.647796,4060.51781 489.852274,4055.73992 C487.099426,4051.04646 481.932239,4052.99159 481.932239,4057.00836 L481.932239,4067.83283 C481.932239,4068.21365 481.635618,4068.55187 481.212284,4068.59421 L477.824042,4068.59421 C470.496989,4068.59421 471.174533,4059.20729 477.400447,4059.20729 L477.400447,4059.20729 Z" id="CNN"></path>
        </g>
    </g>
</svg>