<?xml version="1.0" encoding="UTF-8" standalone="no"?>
<svg width="58px" height="80px" viewBox="0 0 58 80" version="1.1" xmlns="http://www.w3.org/2000/svg" xmlns:xlink="http://www.w3.org/1999/xlink">
    <!-- Generator: sketchtool 3.8.3 (29802) - http://www.bohemiancoding.com/sketch -->
    <title>Group 3</title>
    <desc>Created with sketchtool.</desc>
    <defs>
        <path d="M24.0543908,37.9057341 C16.5558235,40.6589146 4,55.3377398 4,66.863916 L48.5714286,66.863916 C48.5714286,55.3169272 35.9702205,40.6058937 28.4764673,37.8909367 C28.3784966,37.215456 28.3185116,36.5875084 28.3185116,36.0625 C28.3185116,35.7400841 28.3391815,35.3852601 28.3760715,35.0087407 C35.8570733,32.389882 48.5714286,17.5987136 48.5714286,6 L4,6 C4,17.6018795 16.7212971,32.3979569 24.2014818,35.0108825 C24.2535828,35.3863542 24.2827624,35.7404138 24.2827624,36.0625 C24.2827624,36.5905983 24.19593,37.2240228 24.0543908,37.9057341 Z" id="path-1"></path>
        <mask id="mask-2" maskContentUnits="userSpaceOnUse" maskUnits="objectBoundingBox" x="-3" y="-3" width="50.5714286" height="66.863916">
            <rect x="1" y="3" width="50.5714286" height="66.863916" fill="white"></rect>
            <use xlink:href="#path-1" fill="black"></use>
        </mask>
        <rect id="path-3" x="0" y="0" width="52" height="3.66951294" rx="1.83475647"></rect>
        <mask id="mask-4" maskContentUnits="userSpaceOnUse" maskUnits="objectBoundingBox" x="-3" y="-3" width="58" height="9.66951294">
            <rect x="-3" y="-3" width="58" height="9.66951294" fill="white"></rect>
            <use xlink:href="#path-3" fill="black"></use>
        </mask>
        <rect id="path-5" x="0" y="70.3304871" width="52" height="3.66951294"></rect>
        <mask id="mask-6" maskContentUnits="userSpaceOnUse" maskUnits="objectBoundingBox" x="-3" y="-3" width="58" height="9.66951294">
            <rect x="-3" y="67.3304871" width="58" height="9.66951294" fill="white"></rect>
            <use xlink:href="#path-5" fill="black"></use>
        </mask>
    </defs>
    <g id="9.0-Real-Estate-Partners" stroke="none" stroke-width="1" fill="none" fill-rule="evenodd">
        <g id="9.0-Real-Estate-Partners-1@2x" transform="translate(-691.000000, -1373.000000)">
            <g id="Group-3" transform="translate(694.000000, 1376.000000)">
                <use id="Combined-Shape" stroke="#2B65B0" mask="url(#mask-2)" stroke-width="6" xlink:href="#path-1"></use>
                <rect id="Rectangle-150" fill="#2B65B0" transform="translate(26.098615, 25.441371) rotate(-315.000000) translate(-26.098615, -25.441371) " x="20.9065028" y="20.2492587" width="10.384225" height="10.384225" rx="1"></rect>
                <use id="Rectangle-144" stroke="#2B65B0" mask="url(#mask-4)" stroke-width="6" xlink:href="#path-3"></use>
                <use id="Rectangle-144-Copy" stroke="#2B65B0" mask="url(#mask-6)" stroke-width="6" xlink:href="#path-5"></use>
                <path d="M20.2281669,46.0521729 C20.2281669,46.0521729 13.9385463,50.1929932 11.6071429,60.4456787" id="Path-300" stroke="#2B65B0" stroke-width="2" stroke-linecap="round" stroke-linejoin="round"></path>
            </g>
        </g>
    </g>
</svg>