<?xml version="1.0" encoding="UTF-8" standalone="no"?>
<svg width="102px" height="79px" viewBox="0 0 102 79" version="1.1" xmlns="http://www.w3.org/2000/svg" xmlns:xlink="http://www.w3.org/1999/xlink">
    <!-- Generator: sketchtool 3.8.3 (29802) - http://www.bohemiancoding.com/sketch -->
    <title>Group 7</title>
    <desc>Created with sketchtool.</desc>
    <defs>
        <rect id="path-1" x="0" y="49" width="12" height="32"></rect>
        <mask id="mask-2" maskContentUnits="userSpaceOnUse" maskUnits="objectBoundingBox" x="0" y="0" width="12" height="32" fill="white">
            <use xlink:href="#path-1"></use>
        </mask>
        <rect id="path-3" x="30" y="37" width="12" height="44"></rect>
        <mask id="mask-4" maskContentUnits="userSpaceOnUse" maskUnits="objectBoundingBox" x="0" y="0" width="12" height="44" fill="white">
            <use xlink:href="#path-3"></use>
        </mask>
        <rect id="path-5" x="60" y="27" width="12" height="54"></rect>
        <mask id="mask-6" maskContentUnits="userSpaceOnUse" maskUnits="objectBoundingBox" x="0" y="0" width="12" height="54" fill="white">
            <use xlink:href="#path-5"></use>
        </mask>
        <rect id="path-7" x="90" y="14" width="12" height="67"></rect>
        <mask id="mask-8" maskContentUnits="userSpaceOnUse" maskUnits="objectBoundingBox" x="0" y="0" width="12" height="67" fill="white">
            <use xlink:href="#path-7"></use>
        </mask>
    </defs>
    <g id="9.0-Real-Estate-Partners" stroke="none" stroke-width="1" fill="none" fill-rule="evenodd">
        <g id="9.0-Real-Estate-Partners-1@2x" transform="translate(-1054.000000, -1374.000000)">
            <g id="Group-7" transform="translate(1054.000000, 1372.000000)">
                <polygon id="Triangle-1" fill="#2B65B0" transform="translate(92.434228, 3.560680) rotate(77.000000) translate(-92.434228, -3.560680) " points="92.434228 -1.43931957 94.934228 8.56068043 89.934228 8.56068043"></polygon>
                <use id="Rectangle-140" stroke="#2B65B0" mask="url(#mask-2)" stroke-width="6" xlink:href="#path-1"></use>
                <use id="Rectangle-140-Copy" stroke="#2B65B0" mask="url(#mask-4)" stroke-width="6" xlink:href="#path-3"></use>
                <use id="Rectangle-140-Copy-2" stroke="#2B65B0" mask="url(#mask-6)" stroke-width="6" xlink:href="#path-5"></use>
                <use id="Rectangle-140-Copy-3" stroke="#2B65B0" mask="url(#mask-8)" stroke-width="6" xlink:href="#path-7"></use>
                <path d="M6.1328125,49.5722656 C6.1328125,49.5722656 6.7763669,39.0024414 16.2617185,34.4433594 C25.74707,29.8842773 36.2470703,37.4223633 36.2470703,37.4223633 C36.2470703,37.4223633 38.5004883,27.4560547 47.465332,24.0693359 C56.4301758,20.6826172 66.4208984,28.1259766 66.4208984,28.1259766 C66.4208984,28.1259766 68.5498047,17.4423828 76.0405273,10.7827148 C83.53125,4.12304685 90.6835938,4.12304685 90.6835938,4.12304685" id="Path-310" stroke="#2B65B0" stroke-width="2" stroke-dasharray="2"></path>
            </g>
        </g>
    </g>
</svg>