<?xml version="1.0" encoding="UTF-8" standalone="no"?>
<svg width="197px" height="146px" viewBox="0 0 197 146" version="1.1" xmlns="http://www.w3.org/2000/svg" xmlns:xlink="http://www.w3.org/1999/xlink">
    <!-- Generator: sketchtool 3.8.3 (29802) - http://www.bohemiancoding.com/sketch -->
    <title>EF912D99-39A3-4D9E-B461-E23DA2A3A372</title>
    <desc>Created with sketchtool.</desc>
    <defs></defs>
    <g id="9.0-Real-Estate-Partners" stroke="none" stroke-width="1" fill="none" fill-rule="evenodd">
        <g id="9.0-Real-Estate-Partners-1@2x" transform="translate(-895.000000, -835.000000)">
            <g id="Group-14" transform="translate(896.000000, 835.000000)">
                <path d="M0.794667892,144.397705 L194,144.397705" id="Path-263" stroke="#D0D0D0" stroke-width="3" stroke-linecap="round" stroke-linejoin="round" transform="translate(97.397334, 144.397705) scale(-1, 1) translate(-97.397334, -144.397705) "></path>
                <path d="M6.92843473,144.397705 L187.083255,144.397705" id="Path-263" stroke="#2B65B0" stroke-width="3" stroke-linecap="round" stroke-linejoin="round" transform="translate(97.000000, 144.181487) scale(-1, 1) translate(-97.000000, -144.181487) "></path>
                <rect id="Rectangle-141" fill="#2B65B0" transform="translate(38.370922, 6.963215) rotate(-315.000000) translate(-38.370922, -6.963215) " x="36.061398" y="4.65308829" width="4.61904762" height="4.62025316"></rect>
                <rect id="Rectangle-141-Copy" fill="#2B65B0" transform="translate(134.447112, 18.051822) rotate(-315.000000) translate(-134.447112, -18.051822) " x="132.137588" y="15.7416959" width="4.61904762" height="4.62025316"></rect>
                <rect id="Rectangle-141-Copy-2" fill="#2B65B0" transform="translate(161.237588, 3.267012) rotate(-315.000000) translate(-161.237588, -3.267012) " x="158.928065" y="0.956885761" width="4.61904762" height="4.62025316"></rect>
                <rect id="Rectangle-141-Copy-3" fill="#2B65B0" transform="translate(3.266160, 51.317645) rotate(-315.000000) translate(-3.266160, -51.317645) " x="0.956636085" y="49.0075187" width="4.61904762" height="4.62025316"></rect>
                <rect id="Rectangle-141-Copy-4" fill="#2B65B0" transform="translate(26.361398, 35.608784) rotate(-315.000000) translate(-26.361398, -35.608784) " x="24.0518742" y="33.2986579" width="4.61904762" height="4.62025316"></rect>
                <g id="Group-5-Copy-2" transform="translate(27.714286, 6.468354)" stroke="#2B65B0">
                    <polygon id="Triangle-2" stroke-width="3" stroke-linecap="round" stroke-linejoin="round" fill="#FFFFFF" points="26.7904762 0 53.5809524 120.126582 4.54747351e-13 120.126582"></polygon>
                    <path d="M17.3133092,47.8595743 L25.6357143,41.5822785" id="Path-270" stroke-width="2" transform="translate(21.594048, 44.502360) scale(-1, 1) translate(-21.594048, -44.502360) "></path>
                    <path d="M27.1287853,44.468354 L34.8354678,38.3389882" id="Path-270-Copy-5" stroke-width="2"></path>
                    <path d="M13.0488095,66.3792878 C13.0488095,66.3792878 16.0856406,65.3307493 18.9421549,63.4379795 C21.7986693,61.5452098 24.8355004,58.2151899 24.8355004,58.2151899" id="Path-270-Copy" stroke-width="2" transform="translate(18.942155, 62.297239) scale(-1, 1) translate(-18.942155, -62.297239) "></path>
                    <path d="M28.6380952,71.4319785 C28.6380952,71.4319785 31.3608073,70.7688037 34.5314407,68.5037968 C37.702074,66.2387899 40.4247861,61.9113924 40.4247861,61.9113924" id="Path-270-Copy-4" stroke-width="2"></path>
                    <path d="M29.5619048,94.3084817 C29.5619048,94.3084817 34.1995585,94.308482 39.0052361,90.2691229 C43.8109138,86.2297638 45.6200844,81.3164557 45.6200844,81.3164557" id="Path-270-Copy-6" stroke-width="2"></path>
                    <path d="M29.7125651,115.061901 C29.7125651,115.061901 32.8860561,109.512653 38.4905085,105.052386 C44.0949608,100.592118 48.9619048,99.9018643 48.9619048,99.9018643" id="Path-270-Copy-7" stroke-width="2" stroke-linecap="round"></path>
                    <path d="M9.88133371,84.5855546 C9.88133371,84.5855546 13.0912597,85.1334289 17.2429408,82.3560077 C21.394622,79.5785865 24.604548,76.4653067 24.604548,76.4653067" id="Path-270-Copy-2" stroke-width="2" transform="translate(17.242941, 80.547356) scale(-1, 1) translate(-17.242941, -80.547356) "></path>
                    <path d="M6.04519777,102.652554 C6.04519777,102.652554 9.06828809,103.139482 15.2093967,99.3457216 C21.3505053,95.5519609 24.3735956,91.4810127 24.3735956,91.4810127" id="Path-270-Copy-3" stroke-width="2" transform="translate(15.209397, 97.076942) scale(-1, 1) translate(-15.209397, -97.076942) "></path>
                    <polygon id="Triangle-2-Copy" stroke-width="2" stroke-linecap="round" stroke-linejoin="round" fill="#FFFFFF" points="26.7904762 27.721519 30.4857143 137.198323 23.0952381 137.198323"></polygon>
                </g>
                <g id="Group-5-Copy-5" transform="translate(6.466667, 58.215190)" stroke="#2B65B0">
                    <polygon id="Triangle-2" stroke-width="3" stroke-linecap="round" stroke-linejoin="round" fill="#FFFFFF" points="16.6285714 0 33.2571429 74.9783366 0 74.9783366"></polygon>
                    <path d="M10.7461919,29.8720833 L15.9118227,25.9540396" id="Path-270" stroke-width="2" transform="translate(13.403202, 27.776641) scale(-1, 1) translate(-13.403202, -27.776641) "></path>
                    <path d="M16.8385564,27.7554156 L21.6220145,23.9297041" id="Path-270-Copy-5" stroke-width="2"></path>
                    <path d="M8.09926108,41.4313676 C8.09926108,41.4313676 9.98419074,40.7769106 11.7571996,39.5955174 C13.5302085,38.4141242 15.4151382,36.3356554 15.4151382,36.3356554" id="Path-270-Copy" stroke-width="2" transform="translate(11.757200, 38.883511) scale(-1, 1) translate(-11.757200, -38.883511) "></path>
                    <path d="M17.7753695,44.5850604 C17.7753695,44.5850604 19.4653287,44.1711325 21.433308,42.7574034 C23.4012873,41.3436742 25.0912465,38.6426812 25.0912465,38.6426812" id="Path-270-Copy-4" stroke-width="2"></path>
                    <path d="M18.3487685,58.8636832 C18.3487685,58.8636832 21.2273122,58.8636834 24.2101466,56.3424727 C27.192981,53.821262 28.3159144,50.7545663 28.3159144,50.7545663" id="Path-270-Copy-6" stroke-width="2"></path>
                    <path d="M18.4422818,71.8171595 C18.4422818,71.8171595 20.4120348,68.353535 23.8906604,65.5696098 C27.369286,62.7856847 30.3901478,62.3548549 30.3901478,62.3548549" id="Path-270-Copy-7" stroke-width="2" stroke-linecap="round"></path>
                    <path d="M6.13324161,52.7950106 C6.13324161,52.7950106 8.12560947,53.1369724 10.702515,51.4034142 C13.2794205,49.669856 15.2717884,47.7266679 15.2717884,47.7266679" id="Path-270-Copy-2" stroke-width="2" transform="translate(10.702515, 50.274524) scale(-1, 1) translate(-10.702515, -50.274524) "></path>
                    <path d="M3.75219172,64.0717286 C3.75219172,64.0717286 5.62859261,64.37565 9.44031519,62.0077322 C13.2520378,59.6398145 15.1284387,57.0988871 15.1284387,57.0988871" id="Path-270-Copy-3" stroke-width="2" transform="translate(9.440315, 60.591648) scale(-1, 1) translate(-9.440315, -60.591648) "></path>
                    <polygon id="Triangle-2-Copy" stroke-width="2" stroke-linecap="round" stroke-linejoin="round" fill="#FFFFFF" points="16.6285714 17.3026931 18.9221675 85.6338529 14.3349754 85.6338529"></polygon>
                </g>
                <g id="Group-5" transform="translate(73.904762, 6.468354)" stroke="#2B65B0">
                    <polygon id="Triangle-2" stroke-width="3" stroke-linecap="round" stroke-linejoin="round" fill="#FFFFFF" points="26.7904762 0 53.5809524 120.126582 0 120.126582"></polygon>
                    <path d="M17.3133092,47.8595743 L25.6357143,41.5822785" id="Path-270" stroke-width="2" transform="translate(21.594048, 44.502360) scale(-1, 1) translate(-21.594048, -44.502360) "></path>
                    <path d="M27.1287853,44.468354 L34.8354678,38.3389882" id="Path-270-Copy-5" stroke-width="2"></path>
                    <path d="M13.0488095,66.3792878 C13.0488095,66.3792878 16.0856406,65.3307493 18.9421549,63.4379795 C21.7986693,61.5452098 24.8355004,58.2151899 24.8355004,58.2151899" id="Path-270-Copy" stroke-width="2" transform="translate(18.942155, 62.297239) scale(-1, 1) translate(-18.942155, -62.297239) "></path>
                    <path d="M28.6380952,71.4319785 C28.6380952,71.4319785 31.3608073,70.7688037 34.5314407,68.5037968 C37.702074,66.2387899 40.4247861,61.9113924 40.4247861,61.9113924" id="Path-270-Copy-4" stroke-width="2"></path>
                    <path d="M29.5619048,94.3084817 C29.5619048,94.3084817 34.1995585,94.308482 39.0052361,90.2691229 C43.8109138,86.2297638 45.6200844,81.3164557 45.6200844,81.3164557" id="Path-270-Copy-6" stroke-width="2"></path>
                    <path d="M29.7125651,115.061901 C29.7125651,115.061901 32.8860561,109.512653 38.4905085,105.052386 C44.0949608,100.592118 48.9619048,99.9018643 48.9619048,99.9018643" id="Path-270-Copy-7" stroke-width="2" stroke-linecap="round"></path>
                    <path d="M9.88133371,84.5855546 C9.88133371,84.5855546 13.0912597,85.1334289 17.2429408,82.3560077 C21.394622,79.5785865 24.604548,76.4653067 24.604548,76.4653067" id="Path-270-Copy-2" stroke-width="2" transform="translate(17.242941, 80.547356) scale(-1, 1) translate(-17.242941, -80.547356) "></path>
                    <path d="M6.04519777,102.652554 C6.04519777,102.652554 9.06828809,103.139482 15.2093967,99.3457216 C21.3505053,95.5519609 24.3735956,91.4810127 24.3735956,91.4810127" id="Path-270-Copy-3" stroke-width="2" transform="translate(15.209397, 97.076942) scale(-1, 1) translate(-15.209397, -97.076942) "></path>
                    <polygon id="Triangle-2-Copy" stroke-width="2" stroke-linecap="round" stroke-linejoin="round" fill="#FFFFFF" points="26.7904762 27.721519 30.4857143 137.198323 23.0952381 137.198323"></polygon>
                </g>
                <g id="Group-5-Copy-4" transform="translate(154.276190, 36.037975)" stroke="#2B65B0">
                    <polygon id="Triangle-2" stroke-width="3" stroke-linecap="round" stroke-linejoin="round" fill="#FFFFFF" points="17.0904762 0 34.1809524 94.3275847 0 94.3275847"></polygon>
                    <path d="M11.0446972,37.581008 L16.3538177,32.6518563" id="Path-270" stroke-width="2" transform="translate(13.775513, 34.944807) scale(-1, 1) translate(-13.775513, -34.944807) "></path>
                    <path d="M17.3062941,34.9181035 L22.222626,30.1051116" id="Path-270-Copy-5" stroke-width="2"></path>
                    <path d="M8.32424056,52.1233334 C8.32424056,52.1233334 10.2615294,51.2999843 12.0837885,49.8137155 C13.9060476,48.3274466 15.8433364,45.7125988 15.8433364,45.7125988" id="Path-270-Copy" stroke-width="2" transform="translate(12.083789, 48.917966) scale(-1, 1) translate(-12.083789, -48.917966) "></path>
                    <path d="M18.2691297,56.0908824 C18.2691297,56.0908824 20.0060322,55.5701345 22.0286777,53.791572 C24.0513231,52.0130095 25.7882256,48.614986 25.7882256,48.614986" id="Path-270-Copy-4" stroke-width="2"></path>
                    <path d="M18.8584565,74.0543111 C18.8584565,74.0543111 21.8169597,74.0543114 24.8826506,70.8824656 C27.9483416,67.7106199 29.1024676,63.8525189 29.1024676,63.8525189" id="Path-270-Copy-6" stroke-width="2"></path>
                    <path d="M18.9545674,90.3506201 C18.9545674,90.3506201 20.9790358,85.993157 24.5542899,82.4907995 C28.129544,78.988442 31.2343186,78.4464303 31.2343186,78.4464303" id="Path-270-Copy-7" stroke-width="2" stroke-linecap="round"></path>
                    <path d="M6.30360943,66.4195295 C6.30360943,66.4195295 8.35132084,66.8497394 10.9998071,64.6688114 C13.6482933,62.4878834 15.6960048,60.0432274 15.6960048,60.0432274" id="Path-270-Copy-2" stroke-width="2" transform="translate(10.999807, 63.248595) scale(-1, 1) translate(-10.999807, -63.248595) "></path>
                    <path d="M3.85641926,80.6063682 C3.85641926,80.6063682 5.7849424,80.9887209 9.70254616,78.0097277 C13.6201499,75.0307344 15.5486731,71.8340838 15.5486731,71.8340838" id="Path-270-Copy-3" stroke-width="2" transform="translate(9.702546, 76.228203) scale(-1, 1) translate(-9.702546, -76.228203) "></path>
                    <polygon id="Triangle-2-Copy" stroke-width="2" stroke-linecap="round" stroke-linejoin="round" fill="#FFFFFF" points="17.0904762 21.7679042 19.4477833 107.732912 14.7331691 107.732912"></polygon>
                </g>
                <g id="Group-5-Copy-3" transform="translate(117.323810, 38.810127)" stroke="#2B65B0">
                    <polygon id="Triangle-2" stroke-width="3" stroke-linecap="round" stroke-linejoin="round" fill="#FFFFFF" points="20.3238095 0 40.647619 91.9089287 0 91.9089287"></polygon>
                    <path d="M13.1342345,36.6173924 L19.4477833,31.8146292" id="Path-270" stroke-width="2" transform="translate(16.381691, 34.048786) scale(-1, 1) translate(-16.381691, -34.048786) "></path>
                    <path d="M20.5804578,34.0227675 L26.4269066,29.3331856" id="Path-270-Copy-5" stroke-width="2"></path>
                    <path d="M9.89909688,50.7868377 C9.89909688,50.7868377 12.2028998,49.9846001 14.3699107,48.5364407 C16.5369215,47.0882813 18.8407244,44.5404808 18.8407244,44.5404808" id="Path-270-Copy" stroke-width="2" transform="translate(14.369911, 47.663659) scale(-1, 1) translate(-14.369911, -47.663659) "></path>
                    <path d="M21.7254516,54.6526547 C21.7254516,54.6526547 23.7909573,54.1452592 26.1962653,52.4123009 C28.6015734,50.6793426 30.6670791,47.3684479 30.6670791,47.3684479" id="Path-270-Copy-4" stroke-width="2"></path>
                    <path d="M22.4262726,72.1554826 C22.4262726,72.1554826 25.9444927,72.1554829 29.5901791,69.0649665 C33.2358656,65.9744502 34.6083399,62.2152748 34.6083399,62.2152748" id="Path-270-Copy-6" stroke-width="2"></path>
                    <path d="M22.5405666,88.0339375 C22.5405666,88.0339375 24.9480426,83.7882042 29.1996961,80.3756508 C33.4513496,76.9630973 37.143514,76.4349834 37.143514,76.4349834" id="Path-270-Copy-7" stroke-width="2" stroke-linecap="round"></path>
                    <path d="M7.49618419,64.7164646 C7.49618419,64.7164646 9.93130046,65.1356436 13.0808517,63.0106368 C16.2304029,60.88563 18.6655192,58.5036574 18.6655192,58.5036574" id="Path-270-Copy-2" stroke-width="2" transform="translate(13.080852, 61.626836) scale(-1, 1) translate(-13.080852, -61.626836) "></path>
                    <path d="M4.5860121,78.5395383 C4.5860121,78.5395383 6.87939096,78.9120871 11.538163,76.0094782 C16.196935,73.1068694 18.4903139,69.9921842 18.4903139,69.9921842" id="Path-270-Copy-3" stroke-width="2" transform="translate(11.538163, 74.273633) scale(-1, 1) translate(-11.538163, -74.273633) "></path>
                    <polygon id="Triangle-2-Copy" stroke-width="2" stroke-linecap="round" stroke-linejoin="round" fill="#FFFFFF" points="20.3238095 21.2097528 23.1270936 104.970529 17.5205255 104.970529"></polygon>
                </g>
            </g>
        </g>
    </g>
</svg>