<?xml version="1.0" encoding="UTF-8" standalone="no"?>
<svg width="185px" height="26px" viewBox="0 0 185 26" version="1.1" xmlns="http://www.w3.org/2000/svg" xmlns:xlink="http://www.w3.org/1999/xlink">
    <!-- Generator: sketchtool 3.8.3 (29802) - http://www.bohemiancoding.com/sketch -->
    <title>63EE1338-D459-4086-8A6E-D24C6DE98D2B</title>
    <desc>Created with sketchtool.</desc>
    <defs></defs>
    <g id="9.0-Real-Estate-Partners" stroke="none" stroke-width="1" fill="none" fill-rule="evenodd" opacity="0.5">
        <g id="9.0-Real-Estate-Partners-1@2x" transform="translate(-933.000000, -4049.000000)" fill="#3D3F41">
            <g id="NY-Time" transform="translate(933.000000, 4049.000000)">
                <path d="M11.4296364,0.241509079 C11.9465887,0.286449868 12.7582727,0.539480132 13.3703443,1.07114329 C14.0204635,1.69214329 14.1679672,2.63889592 13.9407839,3.49876303 C13.7378629,4.26629724 13.5106796,4.66341039 12.7196736,5.19398408 C11.919845,5.72891566 10.9521103,5.68343013 10.9521103,5.68343013 L10.9521103,9.00251171 L12.5870581,10.3115143 L10.9518346,11.6139801 L10.9526617,16.1399262 C10.9526617,16.1399262 12.5906423,15.2092433 13.6063502,13.1340683 C13.6063502,13.1340683 13.6482578,13.0213078 13.7436528,12.8045025 C13.8340849,13.3634025 13.7825276,14.4899183 13.1450909,15.9356499 C12.6653592,17.0240341 11.7919165,18.0745591 10.6968048,18.6724078 C8.75664829,19.732738 7.30091058,19.8343314 5.74067958,19.5167499 C3.91356334,19.1438775 2.2543532,18.1314841 1.12146945,16.360817 C0.325500745,15.1169104 -0.030438152,13.6681828 0.00209538003,12.1066946 C0.0660596125,9.04363934 2.37125335,6.40602355 5.03183458,5.41868803 C5.35579136,5.29802882 5.48482265,5.21904197 5.9438763,5.18091039 C5.73240835,5.32118013 5.48730402,5.50475645 5.18705812,5.70004461 C4.33043368,6.25839987 3.59594784,7.3655775 3.28274367,8.21890776 L8.44702832,5.94354197 L8.44702832,13.0779604 L4.28246051,15.1376104 C4.7569538,15.7907499 6.19890611,16.7745446 7.43214754,16.9104564 C9.53056036,17.1419696 10.7613204,16.2357999 10.7613204,16.2357999 L10.760769,11.6139801 L9.13491952,10.3115143 L10.7615961,9.00741434 L10.7615961,5.68343013 C9.87464382,5.58129197 8.79772876,5.2904025 8.16801192,5.13733145 C7.24135768,4.9126275 4.15342921,4.05630118 3.66845902,3.98521303 C3.18321311,3.91358013 2.58437556,3.93428013 2.22209538,4.25621961 C1.86009091,4.57788671 1.6362161,5.14495776 1.7900611,5.65564855 C1.87746051,5.94544855 2.07927869,6.11649592 2.23091803,6.27991697 C2.23091803,6.27991697 2.05308644,6.26466434 1.72968107,6.07400645 C1.14655887,5.72918803 0.703220566,5.05017355 0.65028465,4.21672618 C0.581081967,3.12589066 1.03682712,2.14046171 1.94914456,1.47778934 C2.74235618,0.976903816 3.63868256,0.652513026 4.68113413,0.798774868 C6.2019389,1.01149461 8.24686438,1.86319066 10.0684665,2.29543934 C10.774003,2.46267355 11.320456,2.51850908 11.8164545,2.23524592 C12.0469463,2.06991829 12.4541669,1.64447882 12.1216632,1.07958671 C11.7340179,0.420182763 10.9907094,0.435707763 10.3612683,0.316955132 C10.9030343,0.206101184 11.0215887,0.206101184 11.4296364,0.241509079 L11.4296364,0.241509079 Z M5.28824292,14.4289078 L5.28824292,7.53825908 L3.19120864,8.46431171 C3.19120864,8.46431171 2.65688674,9.64557355 2.75035171,11.3631288 C2.82369001,12.7059051 3.58326528,14.3087933 4.16583607,14.9799091 L5.28824292,14.4289078 Z" id="Fill-1"></path>
                <path d="M31.4596498,7.20286461 C31.4596498,7.20286461 29.8768107,8.15206855 28.8128539,8.77688171 C27.7494486,9.4014225 26.3218331,10.0913317 26.3218331,10.0913317 L26.3218331,16.6665778 L25.369538,17.4199488 L25.4963636,17.5681172 L26.4249478,16.8242791 L29.3350447,19.424308 L34.3929061,15.4678843 L34.2732489,15.3224396 L31.4778465,17.491037 L29.1800969,15.3635672 L29.1803726,14.572337 L33.7957228,11.2178475 L31.4596498,7.20286461 L31.4596498,7.20286461 Z M31.5269225,12.6330738 L29.1800969,14.3307462 L29.1800969,8.68264224 L31.5269225,12.6330738 Z" id="Fill-4"></path>
                <path d="M18.2019598,21.8980125 C18.8658644,22.0587099 20.0370715,22.1502257 21.4497988,21.4507836 C23.0133383,20.6769849 23.8004844,19.0340586 23.789456,17.3519112 L23.8556259,14.9678704 L23.8564531,9.75501118 L24.8553428,9.00218487 L24.7395455,8.85265461 L23.755544,9.58859408 L21.484538,7.09342697 L18.5716841,9.56271908 L18.5716841,1.1617875 L14.9317884,3.94375855 C15.0936289,4.04644145 15.6097541,4.13822961 15.624918,4.85755461 L15.624918,16.6252322 L14.0834352,17.7541993 L14.1882042,17.9113559 L14.9334426,17.3630783 L17.0056632,19.2685678 L20.2686662,16.7014954 L20.1506632,16.5546888 L19.3836438,17.1555336 L18.5716841,16.3610349 L18.5796796,9.80512697 L19.529769,9.00300197 L20.9477347,10.7456151 C20.9477347,10.7456151 20.9452534,14.9874809 20.9491133,16.3975322 C20.9386364,17.8993717 20.9333979,19.7757178 20.1343964,20.6824322 C19.3348435,21.588602 19.0152981,21.6605072 18.2019598,21.8980125" id="Fill-6"></path>
                <path d="M40.8471729,21.3059108 C39.5433502,21.1566529 38.9963458,20.3774068 39.011234,19.7618542 C39.020608,19.3647411 39.3834396,18.5925766 40.1758241,18.4863529 C40.9684844,18.3795845 41.777687,18.7456476 42.461994,19.5404187 L45.4724486,16.2523871 L45.3274262,16.1238292 L44.5184993,17.0177424 C43.6974411,16.0938687 42.530921,15.5126345 41.3699151,15.3434937 L41.3699151,5.32551079 L49.1911967,19.4047792 C49.1911967,19.4047792 49.2656379,19.5641147 49.5871133,19.5652042 C49.8641997,19.5665661 49.7974784,19.3415897 49.7974784,19.3415897 L49.7966513,5.17570816 C50.4318823,5.15010553 51.4018227,4.80283579 51.8727317,4.32564632 C53.3783726,2.79820421 52.7638197,1.13130947 52.5981192,0.967071316 C52.5060328,1.69783579 51.9389016,2.42996211 50.9929478,2.43295816 C49.750608,2.43731605 48.9929627,1.53196342 48.9929627,1.53196342 L45.9844382,4.91995421 L46.1278063,5.04796737 L46.9899449,4.07670158 C48.0423219,5.03244237 48.8115469,5.12477526 49.6061371,5.17570816 L49.6058614,13.3955147 L43.8041401,2.98096342 C43.2791923,2.12082395 42.4796393,1.36418447 41.2259955,1.35546868 C39.7845946,1.34593579 38.7534471,2.60155421 38.6304814,3.68285684 C38.4904218,4.90551868 38.6450939,5.18687526 38.6450939,5.18687526 C38.6450939,5.18687526 38.8568376,3.82557789 39.708775,3.83783447 C40.473313,3.84900158 40.8719866,4.54435816 41.1785738,5.06539895 L41.1785738,8.08269632 C40.3897735,8.13853184 38.3360253,8.22541737 38.2100268,10.3376345 C38.2012042,11.1217832 38.6947213,11.9462424 39.1267556,12.2256924 C39.6825827,12.5852187 40.1162712,12.5770476 40.1162712,12.5770476 C40.1162712,12.5770476 39.4504367,12.2281437 39.6497735,11.5360555 C39.8284322,10.9172345 41.1325306,10.8159134 41.1796766,11.0733016 L41.1796766,15.3309647 C40.5521654,15.3249726 38.5422548,15.3897963 37.636003,17.0942779 C37.0898256,18.1213792 37.1212563,19.2721358 37.7054814,20.0846108 C38.1813532,20.7456489 39.1612191,21.5910805 40.8471729,21.3059108" id="Fill-8"></path>
                <path d="M57.3651364,7.20286461 C57.3651364,7.20286461 55.7822973,8.15206855 54.7183405,8.77688171 C53.6549352,9.4014225 52.2273197,10.0913317 52.2273197,10.0913317 L52.2273197,16.6665778 L51.275576,17.4199488 L51.4018502,17.5681172 L52.3304344,16.8242791 L55.2405313,19.424308 L60.2983927,15.4678843 L60.1787355,15.3224396 L57.3833331,17.491037 L55.0855835,15.3635672 L55.0861349,14.572337 L59.7012094,11.2178475 L57.3651364,7.20286461 L57.3651364,7.20286461 Z M57.4324091,12.6330738 L55.0855835,14.3307462 L55.0855835,8.68264224 L57.4324091,12.6330738 Z" id="Fill-10"></path>
                <path d="M64.4350037,19.4738246 L61.9550112,17.4400496 L60.8656893,18.2192957 L60.7548547,18.0667693 L61.8629247,17.2676404 L61.8629247,11.5726891 C61.9166878,9.23086539 59.6903465,9.81209961 59.8111066,7.32455882 C59.8637668,6.23154434 60.9354434,5.40490618 61.4758308,5.13226539 C62.0539903,4.84001408 62.680123,4.84137592 62.680123,4.84137592 C62.680123,4.84137592 61.6644151,5.46918513 61.9114493,6.37181408 C62.2913748,7.7619825 64.6960991,7.88454829 64.7413152,9.73556408 L64.7413152,16.1955983 L66.5174255,17.6015641 L66.984199,17.2390417 L66.984199,10.2465272 L66.0272168,9.30740092 L68.4920455,7.15323908 L70.744579,9.12600355 L69.8851975,10.0468812 L69.8851975,16.2416286 L71.9938115,17.9600009 L72.3690499,17.7257641 L72.3690499,10.2666825 L71.4101379,9.37903382 L73.8804806,7.14915355 L76.1895343,9.03367066 L77.1117772,8.22800487 L77.2366729,8.37099829 L75.1605924,10.1713536 L75.1605924,16.2506167 L69.8479769,19.4893496 L67.1305999,17.362697 L64.4350037,19.4738246" id="Fill-12"></path>
                <path d="M173.11426,7.20286461 C173.11426,7.20286461 171.531421,8.15206855 170.467189,8.77688171 C169.403507,9.4014225 167.975892,10.0913317 167.975892,10.0913317 L167.976443,16.6665778 L167.024424,17.4199488 L167.15125,17.5681172 L168.079282,16.8242791 L170.989379,19.424308 L176.047516,15.4678843 L175.927308,15.3224396 L173.132181,17.491037 L170.834431,15.3635672 L170.834431,14.572337 L175.449782,11.2178475 L173.11426,7.20286461 L173.11426,7.20286461 Z M173.181257,12.6330738 L170.834431,14.3307462 L170.834431,8.68264224 L173.181257,12.6330738 Z" id="Fill-14"></path>
                <polygon id="Fill-16" points="149.368118 9.95528368 149.492462 10.0971876 150.445033 9.28770868 151.858311 10.8660837 151.858311 16.3017403 151.172626 16.9186547 153.376359 19.3816824 155.636888 17.1787666 154.707477 16.2306521 154.707477 9.65676789 155.269645 9.21280737 156.833185 11.0183376 156.833185 16.4341113 156.245376 17.0156179 158.319802 19.3206718 160.53925 17.1281061 159.723155 16.2818574 159.702477 9.68291526 160.301314 9.20272974 161.931851 10.9777547 161.931851 16.3632955 161.394772 16.8933245 163.686456 19.3617995 166.761426 16.5566771 166.631568 16.4180416 165.884399 17.0976008 164.739109 15.8430718 164.739109 9.69272053 165.845249 8.86090737 165.730003 8.71137711 164.623036 9.54210079 162.530689 7.22451789 159.537604 9.56007711 157.442499 7.30622842 154.552805 9.53964947 152.436747 7.31603368"></polygon>
                <polygon id="Fill-18" points="143.106543 9.78453592 143.231163 9.92671224 144.035679 9.24170566 145.294837 10.7130399 145.294837 16.9241293 144.407333 17.6889399 144.53085 17.834657 145.462192 17.0466951 147.493056 19.3620991 150.426864 16.7740543 150.303346 16.6324228 149.439554 17.3836149 148.225612 16.0013451 148.225612 9.92752934 149.248764 9.05322671 149.125798 8.90887145 148.153652 9.73632671 146.017467 7.27602276"></polygon>
                <polygon id="Fill-20" points="144.747584 4.78880882 146.917405 2.82639434 148.681109 4.75884829 146.501362 6.7114575"></polygon>
                <path d="M140.982462,0.241509079 C141.499966,0.286449868 142.31165,0.539480132 142.923721,1.07114329 C143.574116,1.69214329 143.721344,2.63889592 143.493885,3.49876303 C143.290964,4.26629724 143.064608,4.66341039 142.272499,5.19398408 C141.472946,5.72891566 140.505763,5.68343013 140.505763,5.68343013 L140.505763,9.00251171 L142.140711,10.3115143 L140.504936,11.6139801 L140.505763,16.1399262 C140.505763,16.1399262 142.143468,15.2092433 143.159452,13.1340683 C143.159452,13.1340683 143.201635,13.0213078 143.29703,12.8045025 C143.387462,13.3634025 143.335905,14.4899183 142.698744,15.9356499 C142.219012,17.0240341 141.345018,18.0745591 140.249906,18.6724078 C138.30975,19.732738 136.854012,19.8343314 135.294057,19.5167499 C133.466665,19.1438775 131.808006,18.1314841 130.675122,16.360817 C129.878878,15.1169104 129.522939,13.6681828 129.555472,12.1066946 C129.619988,9.04363934 131.92463,6.40602355 134.585487,5.41868803 C134.909444,5.29802882 135.0382,5.21904197 135.497253,5.18091039 C135.285785,5.32118013 135.040957,5.50475645 134.740711,5.70004461 C133.884086,6.25839987 133.149049,7.3655775 132.836396,8.21890776 L138.000405,5.94354197 L138.000405,13.0779604 L133.836113,15.1376104 C134.310331,15.7907499 135.752283,16.7745446 136.986076,16.9104564 C139.083937,17.1419696 140.314697,16.2357999 140.314697,16.2357999 L140.314697,11.6139801 L138.688297,10.3115143 L140.314697,9.00741434 L140.314697,5.68343013 C139.428021,5.58129197 138.351106,5.2904025 137.721665,5.13733145 C136.794735,4.9126275 133.706531,4.05630118 133.221836,3.98521303 C132.736866,3.91358013 132.137753,3.93428013 131.775472,4.25621961 C131.413468,4.57788671 131.189317,5.14495776 131.343438,5.65564855 C131.430838,5.94544855 131.631829,6.11649592 131.784295,6.27991697 C131.784295,6.27991697 131.605912,6.26466434 131.283058,6.07400645 C130.69966,5.72918803 130.256046,5.05017355 130.203386,4.21672618 C130.134459,3.12589066 130.590204,2.14046171 131.502522,1.47778934 C132.296009,0.976903816 133.191784,0.652513026 134.234511,0.798774868 C135.75504,1.01149461 137.800241,1.86319066 139.621844,2.29543934 C140.32738,2.46267355 140.873006,2.51850908 141.369556,2.23524592 C141.600599,2.06991829 142.007268,1.64447882 141.67504,1.07958671 C141.287119,0.420182763 140.544086,0.435707763 139.91437,0.316955132 C140.456687,0.206101184 140.574966,0.206101184 140.982462,0.241509079 L140.982462,0.241509079 Z M134.841896,14.4289078 L134.841896,7.53825908 L132.744586,8.46431171 C132.744586,8.46431171 132.210264,9.64557355 132.303453,11.3631288 C132.377343,12.7059051 133.136091,14.3087933 133.719213,14.9799091 L134.841896,14.4289078 Z" id="Fill-22"></path>
                <path d="M178.742037,20.2760313 C178.406776,20.3727221 176.950212,20.0238182 176.600338,18.5317839 C176.260666,17.0786984 177.281888,16.0943589 178.82475,14.5443103 L177.003148,12.9019287 L177.003148,9.76070368 C177.003148,9.76070368 178.341158,9.09993789 179.391054,8.45115632 C180.440122,7.80237474 181.514004,7.09884711 181.514004,7.09884711 C181.514004,7.09884711 182.295636,8.07556026 183.179556,7.99875237 C184.565264,7.87863789 184.501024,6.79788 184.461322,6.54321553 C184.697328,6.96075632 185.329802,8.20112211 182.896404,10.9743774 L184.877917,12.5552037 L184.877917,16.6350103 C184.877917,16.6350103 182.576031,17.8179063 180.398766,19.388655 C180.398766,19.388655 179.18317,17.8859984 178.128036,18.6031445 C177.415331,19.0876879 177.740942,19.9088787 178.742037,20.2760313 M177.028788,17.1293589 C177.028788,17.1293589 178.075651,15.4199747 179.87244,15.7884892 C181.596441,16.1417511 182.194727,17.9407445 182.194727,17.9407445 L182.194727,13.799655 L180.992089,12.7643826 C179.671173,14.0750195 177.320763,15.9745168 177.028788,17.1293589 M179.696814,8.47566947 L179.696814,11.7391879 L180.795785,12.6875747 C180.795785,12.6875747 183.185346,10.7957037 184.052999,9.04682605 C184.052999,9.04682605 182.978841,10.4849313 181.533855,10.0458734 C180.324325,9.67872079 179.696814,8.47566947 179.696814,8.47566947" id="Fill-25"></path>
                <path d="M104.363104,9.91565408 L105.255295,9.10399618 L105.384602,9.24671724 L104.514468,10.0447567 L104.514468,16.531483 C104.514468,16.531483 102.863529,17.3984317 101.71107,18.0404041 C100.55999,18.6826488 99.3295052,19.4360199 99.3295052,19.4360199 L96.3005782,16.916612 L95.4993711,17.6046146 L95.3700641,17.459987 L96.2129031,16.7376659 L96.2129031,9.76013171 L96.2236557,9.76013171 C96.2236557,9.76013171 97.6523741,9.12170013 98.8574933,8.44976724 C99.9349598,7.84919487 101.141733,7.15165934 101.141733,7.15165934 L104.363104,9.91565408 L104.363104,9.91565408 Z M99.0857794,15.6340291 L101.645727,17.923558 L101.645727,10.921783 L99.0857794,8.58159355 L99.0857794,15.6340291 Z" id="Fill-28"></path>
                <path d="M110.319112,9.26134342 L112.242726,7.31717763 C112.242726,7.31717763 112.507405,7.54515 112.754991,7.66689868 C112.895878,7.73553553 113.477897,8.03078289 114.012219,7.74098289 C114.301437,7.58328158 114.343069,7.54215395 114.66096,7.24445526 C114.7252,8.75637237 113.991817,9.82160526 113.076191,10.2595737 C112.701779,10.4390645 111.60777,10.7860618 110.46248,9.40624342 L110.46248,16.3886803 L111.680282,17.4514618 L112.696265,16.6204658 L112.813993,16.7648211 L109.630393,19.3901803 L107.2083,17.2125947 L106.337338,18.0256145 L106.193419,17.8758118 L107.521228,16.6915539 L107.531981,10.6632237 L106.514343,9.330525 L105.638694,10.0947908 L105.51242,9.95424868 L108.595937,7.21503947 L110.319112,9.26134342" id="Fill-30"></path>
                <path d="M118.430411,12.1696117 L121.98787,7.05317092 C121.98787,7.05317092 122.456297,7.60417224 123.27322,7.81607487 C124.384323,8.10342355 125.35509,7.04254855 125.35509,7.04254855 C125.168712,8.41011039 124.467586,9.96369987 123.019293,10.200388 C121.742765,10.4087499 120.555567,9.42931303 120.555567,9.42931303 L120.3248,9.78094066 L125.263555,17.1517749 L126.251417,16.2976275 L126.378518,16.4398038 L122.989516,19.3647683 L118.430411,12.1696117" id="Fill-32"></path>
                <path d="M115.491585,5.33964671 C115.491585,4.23818882 115.034461,3.55481645 114.435624,3.60602171 L118.315937,0.913115132 L118.315937,16.1559414 L118.316212,16.1559414 L119.341294,17.2252599 L120.116585,16.5590467 L120.239275,16.701223 L117.112472,19.3993046 L114.994208,17.4358007 L114.146406,18.1701059 L114.012412,18.0279296 L115.491585,16.7548796 L115.491585,5.33964671" id="Fill-34"></path>
                <path d="M83.0541647,5.08963974 C83.053889,4.06035947 82.6304016,3.48430026 81.9449918,3.46986474 C80.9587846,3.44834763 80.7249844,4.82326342 80.7249844,4.82326342 C80.7249844,4.82326342 80.5457742,3.76511211 81.442652,2.80283447 C81.9471975,2.26218316 82.8887399,1.51071868 84.3599173,1.86016737 C85.8801706,2.22132789 86.3116535,3.38733711 86.3116535,4.41743447 L86.3116535,18.6007476 C86.3116535,18.6007476 86.8865045,18.6685674 87.2796639,18.7524568 C87.7367876,18.8491476 88.1702004,18.9692621 88.1702004,18.9692621 L88.1702004,1.86724895 L88.3587846,1.86724895 L88.3587846,4.17284763 L91.4753867,1.69375026 L93.7579724,3.69865421 L94.823032,2.78867132 L94.9435164,2.93139237 L93.8313107,3.88059632 L93.8313107,17.0659516 C93.7758934,17.92827 93.6355581,18.8012108 92.8133972,19.3042753 C90.9802154,20.3790411 88.7679352,19.1416713 86.7968994,18.8570463 C85.3350961,18.6454161 83.0381736,18.3700516 82.4619441,19.6973029 C82.2736356,20.1317305 82.2868696,20.8061147 82.9504985,21.2440832 C84.2813405,22.1232884 90.2109903,19.7673016 92.2443361,20.7039766 C94.098196,21.5570345 94.0910276,22.9052582 93.8048428,23.8315832 C93.3226297,25.5706555 91.1009754,25.8748911 91.1009754,25.8748911 C91.1009754,25.8748911 92.1878159,25.2541634 91.8776446,24.2205253 C91.7207668,23.6975779 91.3617951,23.5510437 90.1988592,23.6801463 C87.657108,23.9628647 84.6196341,25.1814411 82.5785686,24.3376437 C81.5264672,23.9032161 80.782883,22.6048358 80.8545671,21.3279726 C80.9069516,19.4913924 83.0541647,18.7658029 83.0541647,18.7658029 L83.053889,11.9672147 C82.9921304,11.6994766 81.8460127,11.7711095 81.5962213,12.2684542 C81.2149173,13.0250937 82.0696118,13.3707292 82.0696118,13.3707292 C82.0696118,13.3707292 81.3610425,13.4745016 80.7677191,12.7976661 C80.4787772,12.4689174 79.8749769,11.3124411 80.6599173,10.2393095 C81.3050738,9.35819763 82.0781587,9.20403711 83.0541647,9.09699632 L83.0541647,5.08963974 L83.0541647,5.08963974 Z M88.3587846,19.020195 C88.3587846,19.020195 89.263658,19.2577003 89.9223241,18.7216792 C90.6551557,18.1251924 90.5776818,17.2887489 90.5776818,17.2887489 L90.5776818,12.0075253 C90.5776818,12.0075253 90.1530917,11.4668739 89.4787101,11.4668739 C88.8040529,11.4668739 88.3587846,12.0252292 88.3587846,12.0252292 L88.3587846,19.020195 Z M90.5776818,5.15146737 L89.0811393,3.85145289 L88.3587846,4.41743447 L88.3587846,9.31325684 C88.3587846,9.31325684 88.8040529,9.86943316 89.4787101,9.86943316 C90.1530917,9.86943316 90.5776818,9.33341211 90.5776818,9.33341211 L90.5776818,5.15146737 Z M90.5776818,9.62620816 C90.5776818,9.62620816 90.1492317,10.108845 89.4748502,10.108845 C88.8007444,10.108845 88.3587846,9.62375684 88.3587846,9.62375684 L88.3587846,11.7111884 C88.3587846,11.7111884 88.8007444,11.226645 89.4748502,11.226645 C90.1492317,11.226645 90.5776818,11.6861305 90.5776818,11.6861305 L90.5776818,9.62620816 Z" id="Fill-36"></path>
            </g>
        </g>
    </g>
</svg>