<?xml version="1.0" encoding="UTF-8" standalone="no"?>
<svg width="101px" height="25px" viewBox="0 0 101 25" version="1.1" xmlns="http://www.w3.org/2000/svg" xmlns:xlink="http://www.w3.org/1999/xlink">
    <!-- Generator: sketchtool 3.8.3 (29802) - http://www.bohemiancoding.com/sketch -->
    <title>9D4209EA-368A-4149-BD70-E9E2A8C79AFD</title>
    <desc>Created with sketchtool.</desc>
    <defs></defs>
    <g id="9.0-Real-Estate-Partners" stroke="none" stroke-width="1" fill="none" fill-rule="evenodd" opacity="0.5">
        <g id="9.0-Real-Estate-Partners-1@2x" transform="translate(-270.000000, -3964.000000)" fill="#3D3F41">
            <path d="M332.592982,3969.50658 C332.09278,3969.50658 331.914262,3969.74919 331.914515,3970.36802 C331.914515,3971.02082 332.14934,3971.23757 332.598032,3971.23757 C333.02905,3971.23757 333.27953,3971.05428 333.27953,3970.36802 C333.27953,3969.75806 333.11288,3969.50658 332.592982,3969.50658 L332.592982,3969.50658 Z M365.667452,3969.57477 L364.686995,3969.57477 L364.686995,3971.91293 L363.731282,3971.91293 L363.731282,3969.57477 L362.758652,3969.57477 L362.758652,3968.83401 L365.667452,3968.83401 L365.667452,3969.57477 Z M361.634523,3971.91293 L361.09392,3970.87124 L360.45964,3970.87124 L360.45964,3971.91344 L359.53448,3971.91344 L359.53448,3968.83451 L361.47469,3968.83451 C361.880963,3968.83451 362.14937,3968.95214 362.305163,3969.15724 C362.422575,3969.31264 362.48267,3969.51951 362.48267,3969.80775 C362.48267,3970.05544 362.427373,3970.2514 362.348593,3970.38805 C362.249865,3970.55232 362.112758,3970.64841 361.968833,3970.6801 L362.684923,3971.91293 L361.634523,3971.91293 Z M357.47509,3971.95933 C356.347678,3971.95933 355.836618,3971.40996 355.83687,3970.35788 C355.83687,3969.37551 356.33884,3968.77849 357.47509,3968.77849 C358.630025,3968.77849 359.108513,3969.3172 359.108513,3970.34622 C359.108513,3971.42745 358.595685,3971.95933 357.47509,3971.95933 L357.47509,3971.95933 Z M355.281118,3970.64156 C355.10462,3970.84843 354.81071,3970.94654 354.43398,3970.9544 C354.318588,3970.95617 353.489125,3970.94933 353.489125,3970.94933 L353.48862,3970.94933 L353.48862,3971.91319 L352.543765,3971.91319 L352.543765,3968.83426 L354.430698,3968.83426 C354.80061,3968.83426 355.063968,3968.91665 355.231628,3969.09183 C355.411155,3969.24723 355.507863,3969.51266 355.507863,3969.89496 C355.507863,3970.23645 355.43388,3970.47804 355.281118,3970.64156 L355.281118,3970.64156 Z M351.942563,3971.91293 L349.319088,3971.91293 L349.319088,3968.83401 L351.925898,3968.83401 L351.925898,3969.55906 L350.242228,3969.55906 L350.242228,3970.00549 L351.863783,3970.00549 L351.863783,3970.73739 L350.242228,3970.73739 L350.242228,3971.19498 L351.942563,3971.19498 L351.942563,3971.91293 Z M347.785402,3971.91293 L347.24379,3970.87124 L346.61052,3970.87124 L346.61052,3971.91344 L345.68637,3971.91344 L345.68637,3968.83451 L347.62658,3968.83451 C348.034872,3968.83451 348.30025,3968.95214 348.455032,3969.15724 C348.574212,3969.31264 348.63153,3969.51951 348.63153,3969.80775 C348.63153,3970.05544 348.577242,3970.2514 348.496442,3970.38805 C348.400745,3970.55232 348.25985,3970.64841 348.118702,3970.6801 L348.836812,3971.91293 L347.785402,3971.91293 Z M343.909023,3971.46624 C343.724698,3971.75043 343.408063,3971.91293 342.856603,3971.91293 L341.128492,3971.91293 L341.128492,3968.83401 L342.811153,3968.83401 C343.36539,3968.83401 343.710558,3968.97065 343.899933,3969.23507 C344.088298,3969.49644 344.12491,3969.75299 344.12491,3970.31351 C344.12491,3970.97012 344.078703,3971.2107 343.909023,3971.46624 L343.909023,3971.46624 Z M340.660105,3971.91293 L338.23863,3971.91293 L338.23863,3968.83401 L339.187525,3968.83401 L339.187525,3971.15138 L340.660105,3971.15138 L340.660105,3971.91293 Z M336.741558,3971.91293 L336.202975,3970.87124 L335.568695,3970.87124 L335.568695,3971.91344 L334.643535,3971.91344 L334.643535,3968.83451 L336.584755,3968.83451 C336.993048,3968.83451 337.258425,3968.95214 337.413208,3969.15724 C337.532388,3969.31264 337.589705,3969.51951 337.589705,3969.80775 C337.589705,3970.05544 337.536428,3970.2514 337.454618,3970.38805 C337.35791,3970.55232 337.219793,3970.64841 337.077888,3970.6801 L337.794988,3971.91293 L336.741558,3971.91293 Z M332.592983,3971.95933 C331.46759,3971.95933 330.95653,3971.40996 330.956783,3970.35788 C330.956783,3969.37551 331.458753,3968.77849 332.592983,3968.77849 C333.749938,3968.77849 334.227415,3969.3172 334.227415,3970.34622 C334.227415,3971.42745 333.715345,3971.95933 332.592983,3971.95933 L332.592983,3971.95933 Z M330.06268,3971.91293 L329.037025,3971.91293 C329.037025,3971.91293 328.578485,3970.13834 328.566617,3970.03921 C328.561567,3970.14239 328.09217,3971.91293 328.09217,3971.91293 L327.074342,3971.91293 L326.1964,3968.83401 L327.199582,3968.83401 C327.199582,3968.83401 327.66797,3970.73536 327.66797,3970.83246 C327.66797,3970.73536 328.121712,3968.83401 328.121712,3968.83401 L329.086262,3968.83401 C329.086262,3968.83401 329.551872,3970.73536 329.551872,3970.83246 C329.551872,3970.73536 330.012432,3968.83401 330.012432,3968.83401 L330.922695,3968.83401 L330.06268,3971.91293 Z M324.277147,3971.91293 C324.22589,3971.87617 324.176652,3971.83358 324.133222,3971.79505 C323.896377,3971.89417 323.580752,3971.94361 323.288862,3971.94361 C322.559895,3971.94361 321.903142,3971.81001 321.876882,3971.24543 C321.873852,3971.19701 321.876882,3971.12552 321.876882,3971.08597 C321.88471,3970.73536 322.21599,3970.51759 322.579085,3970.34622 C322.400567,3970.0927 322.332645,3969.88178 322.327595,3969.6957 L322.327595,3969.53928 C322.34426,3969.16104 322.714172,3968.80257 323.35325,3968.80257 C323.93703,3968.80257 324.2774,3969.14203 324.299115,3969.51545 C324.303155,3969.54308 324.299115,3969.62827 324.299115,3969.64905 C324.289267,3970.03921 323.991317,3970.31047 323.68554,3970.50061 C323.823657,3970.61367 324.000155,3970.77212 324.176652,3970.91764 C324.277147,3970.78987 324.333455,3970.62635 324.342292,3970.45016 L325.202307,3970.45016 C325.187662,3970.83651 325.03187,3971.17014 324.786187,3971.40489 C324.990207,3971.55649 325.222002,3971.73573 325.44395,3971.91293 L324.277147,3971.91293 Z M270,3964 L270,3983.88159 L278.36482,3983.88159 C276.345073,3983.20318 275.043687,3981.76196 275.043687,3979.33177 L275.043687,3968.8411 L278.383252,3968.8411 L278.383252,3979.04251 C278.383252,3980.65385 279.581617,3981.60148 281.76448,3981.60148 C283.676157,3981.60148 285.028295,3980.65359 285.028295,3979.06228 L285.028295,3968.8411 L288.36887,3968.8411 L288.36887,3979.52571 C288.36887,3980.07964 288.285798,3980.58413 288.131773,3981.04198 L290.512342,3981.04198 L290.512342,3983.88159 L293.87741,3983.88159 C292.104102,3983.31093 291.27262,3982.288 290.876195,3981.03868 C290.71914,3980.53571 290.661065,3979.77821 290.661065,3979.46917 L294.099357,3979.46917 C294.099357,3979.74145 294.196065,3980.2069 294.312467,3980.43861 C294.737677,3981.33098 295.74187,3981.71708 297.768687,3981.71708 C300.088405,3981.71708 300.899182,3981.07924 300.899182,3980.07026 C300.899182,3978.80877 300.260105,3978.36411 297.790402,3977.89865 C297.345497,3977.82032 296.225155,3977.60534 295.549465,3977.47072 C292.573752,3976.90868 290.740097,3975.5321 290.740097,3972.99113 C290.740097,3970.39058 292.825243,3968.64666 297.306107,3968.64666 C301.130977,3968.64666 302.92802,3969.98471 303.699407,3971.92358 C303.893832,3972.42858 304.047605,3973.00786 304.047605,3973.39701 L300.609312,3973.39701 C300.609312,3973.22284 300.512605,3972.87527 300.396202,3972.64153 C299.99094,3971.78795 299.160215,3971.34227 297.229095,3971.34227 C294.699045,3971.34227 294.196065,3971.90381 294.196065,3972.77716 C294.196065,3973.90226 295.10456,3974.34794 297.596987,3974.85192 C298.367365,3975.00657 299.372315,3975.22053 299.720512,3975.27884 C302.7543,3975.86116 304.337475,3977.12189 304.337475,3979.7417 C304.337475,3980.20259 304.271572,3980.63559 304.150877,3981.04198 L306.55695,3981.04198 L306.55695,3983.88159 L307.580585,3983.88159 L307.580585,3968.8411 L311.462772,3968.8411 L317.334407,3978.71167 L317.334407,3968.8411 L320.52121,3968.8411 L320.52121,3983.88159 L324.881127,3983.88159 C323.783257,3983.48889 322.8937,3982.83685 322.293507,3981.8806 C321.73927,3980.99736 321.432482,3979.86744 321.432482,3978.44827 C321.432482,3977.15358 321.78169,3976.00364 322.41496,3975.09961 C323.499952,3973.51717 325.444202,3972.59311 327.901027,3972.59311 C330.479052,3972.59311 332.240745,3973.53695 333.241655,3974.99693 C334.080965,3976.22977 334.387752,3977.85429 334.204185,3979.55765 L324.666502,3979.55765 C324.666502,3980.07457 324.89249,3980.46371 325.280077,3980.89544 C325.753515,3981.40932 326.672867,3981.73711 327.900775,3981.73711 C328.821895,3981.73711 329.496575,3981.57258 329.969002,3981.36673 C330.560862,3981.09952 330.847955,3980.73117 330.90805,3980.48348 L334.121617,3980.48348 C333.85725,3981.57258 333.202265,3982.59855 332.077882,3983.32056 C331.73928,3983.5396 331.350682,3983.72669 330.917392,3983.88159 L337.593997,3983.88159 L333.665855,3972.86057 L337.083442,3972.86057 L339.78494,3981.26355 L342.260702,3972.86057 L345.902257,3972.86057 L348.441145,3981.26355 L351.079517,3972.86057 L354.295862,3972.86057 L350.324542,3983.88159 L356.350202,3983.88159 C355.16017,3983.46988 354.489782,3982.78184 354.22895,3981.7579 C354.127445,3981.30639 354.10775,3980.99736 354.10775,3980.62697 L357.361212,3980.62697 C357.361212,3980.77148 357.380907,3980.97632 357.462717,3981.20321 C357.668,3981.73711 358.527005,3981.8806 360.308392,3981.8806 C362.17058,3981.8806 362.743755,3981.55179 362.743755,3980.89519 C362.743755,3980.25634 362.067055,3980.11386 360.40914,3979.86719 C359.9809,3979.80584 358.629772,3979.59973 357.955092,3979.49681 C355.47832,3979.14823 354.291822,3978.05989 354.291822,3975.8997 C354.291822,3973.88857 356.090885,3972.57334 359.714765,3972.57334 C362.80284,3972.57334 364.749867,3973.3747 365.322032,3974.99668 C365.464947,3975.43044 365.527062,3976.12659 365.527062,3976.35247 L362.355157,3976.35247 C362.355157,3976.22952 362.311727,3975.88094 362.211232,3975.73745 C361.985497,3975.43044 361.392627,3975.16121 359.838237,3975.16121 C358.036145,3975.16121 357.502612,3975.45123 357.502612,3975.98412 C357.502612,3976.4772 357.85283,3976.66125 359.44863,3976.90894 C360.103615,3977.00882 361.67972,3977.23673 362.067307,3977.29808 C364.767795,3977.70953 365.956312,3978.71674 365.956312,3980.83283 C365.956312,3982.31183 365.252595,3983.3307 363.756532,3983.88159 L371,3983.88159 L371,3964 L270,3964 Z M357.47509,3969.50658 C356.971858,3969.50658 356.79536,3969.74919 356.795613,3970.36802 C356.795613,3971.02082 357.028418,3971.23757 357.4761,3971.23757 C357.909138,3971.23757 358.159618,3971.05428 358.159618,3970.36802 C358.159618,3969.75806 357.994988,3969.50658 357.47509,3969.50658 L357.47509,3969.50658 Z M327.920723,3975.24208 C326.75594,3975.24208 325.895673,3975.55213 325.342445,3976.04521 C324.953848,3976.39481 324.646303,3977.07093 324.64605,3977.40126 L330.947693,3977.40126 C330.947693,3977.07118 330.807555,3976.5383 330.399263,3976.10656 C329.926835,3975.63427 329.14964,3975.24208 327.920723,3975.24208 L327.920723,3975.24208 Z M361.25855,3969.55906 L360.467468,3969.55906 L360.467468,3970.18676 L361.277235,3970.18676 C361.392628,3970.18676 361.495143,3970.16014 361.528725,3970.08383 C361.55145,3970.02932 361.562308,3969.94719 361.562308,3969.88584 C361.562308,3969.81663 361.55549,3969.73347 361.531755,3969.68784 C361.485295,3969.58872 361.392628,3969.55906 361.25855,3969.55906 L361.25855,3969.55906 Z M347.40842,3969.55906 L346.619357,3969.55906 L346.619357,3970.18676 L347.429125,3970.18676 C347.543507,3970.18676 347.645012,3970.16014 347.679605,3970.08383 C347.70334,3970.02932 347.713187,3969.94719 347.713187,3969.88584 C347.713187,3969.81663 347.70738,3969.73347 347.683645,3969.68784 C347.636175,3969.58872 347.543507,3969.55906 347.40842,3969.55906 L347.40842,3969.55906 Z M336.368615,3969.55906 L335.577532,3969.55906 L335.577532,3970.18676 L336.38932,3970.18676 C336.504712,3970.18676 336.603187,3970.16014 336.63778,3970.08383 C336.661515,3970.02932 336.673382,3969.94719 336.673382,3969.88584 C336.673382,3969.81663 336.666312,3969.73347 336.6398,3969.68784 C336.594602,3969.58872 336.504712,3969.55906 336.368615,3969.55906 L336.368615,3969.55906 Z M284.976532,3983.88159 L287.53259,3983.88159 L287.53259,3982.17746 C286.943507,3982.95499 286.064807,3983.52084 284.976532,3983.88159 L284.976532,3983.88159 Z M323.343907,3969.46095 C323.20781,3969.46095 323.150745,3969.55399 323.137867,3969.663 C323.13408,3969.68784 323.13408,3969.72029 323.137867,3969.74615 C323.142665,3969.83133 323.186095,3969.92919 323.262097,3970.02932 C323.4189,3969.93629 323.528485,3969.83437 323.538332,3969.71446 L323.538332,3969.6521 C323.533282,3969.55018 323.485055,3969.46095 323.343907,3969.46095 L323.343907,3969.46095 Z M342.653593,3969.55399 L342.061733,3969.55399 L342.061733,3971.18586 L342.653593,3971.18586 C342.893215,3971.18586 343.019465,3971.13541 343.12501,3971.01068 C343.205053,3970.91257 343.21389,3970.56399 343.21389,3970.31351 C343.21389,3970.0927 343.192175,3969.8075 343.117183,3969.72029 C342.99775,3969.58872 342.885388,3969.55399 342.653593,3969.55399 L342.653593,3969.55399 Z M354.226172,3969.55018 L353.477762,3969.55018 L353.477762,3970.26002 L354.214557,3970.26002 C354.393075,3970.26002 354.480692,3970.2007 354.525132,3970.11552 C354.555685,3970.06 354.563512,3970.00245 354.563512,3969.91245 C354.563512,3969.81663 354.550635,3969.73728 354.522102,3969.6957 C354.469835,3969.59784 354.380955,3969.55018 354.226172,3969.55018 L354.226172,3969.55018 Z M301.154965,3983.88159 L303.578207,3983.88159 L303.578207,3982.20611 C303.04922,3982.93598 302.240715,3983.50791 301.154965,3983.88159 L301.154965,3983.88159 Z M322.788913,3971.11259 C322.788913,3971.26115 322.92602,3971.31768 323.245685,3971.31768 C323.332293,3971.31768 323.437838,3971.30678 323.51384,3971.28701 C323.3381,3971.13541 323.155795,3970.99293 323.026515,3970.86212 C322.886378,3970.94147 322.78866,3971.02564 322.788913,3971.11259 L322.788913,3971.11259 Z M310.767388,3983.88159 L316.744063,3983.88159 L310.767388,3973.78564 L310.767388,3983.88159 Z M343.95826,3976.48405 C343.95826,3976.48405 343.837818,3977.15358 343.817113,3977.27729 C343.799943,3977.62004 342.105415,3982.63202 341.681468,3983.88159 L346.260555,3983.88159 C345.836103,3982.63227 344.138545,3977.62258 344.104205,3977.29808 C344.08249,3977.15358 343.95826,3976.48405 343.95826,3976.48405 L343.95826,3976.48405 Z M270,3988.33735 L371,3988.33735 L371,3984.96942 L270,3984.96942 L270,3988.33735 Z" id="us-news"></path>
        </g>
    </g>
</svg>