<?xml version="1.0" encoding="UTF-8" standalone="no"?>
<svg width="192px" height="105px" viewBox="0 0 192 105" version="1.1" xmlns="http://www.w3.org/2000/svg" xmlns:xlink="http://www.w3.org/1999/xlink">
    <!-- Generator: sketchtool 3.8.3 (29802) - http://www.bohemiancoding.com/sketch -->
    <title>0AA5E94C-EE62-4675-A997-A56EF4761DD6</title>
    <desc>Created with sketchtool.</desc>
    <defs>
        <path d="M1.18513641,61.0807992 C0.890632076,58.8966517 2.44997218,57.1260504 4.659177,57.1260504 L33.9244178,57.1260504 C36.1375818,57.1260504 37.691932,58.9042959 37.3984584,61.0807992 L32.3961456,98.179705 C32.1016413,100.363852 30.0748888,102.134454 27.8651501,102.134454 L10.7184447,102.134454 C8.51054932,102.134454 6.48092282,100.356208 6.18744921,98.179705 L1.18513641,61.0807992 Z" id="path-1"></path>
        <mask id="mask-2" maskContentUnits="userSpaceOnUse" maskUnits="objectBoundingBox" x="0" y="0" width="36.2846159" height="45.0084034" fill="white">
            <use xlink:href="#path-1"></use>
        </mask>
        <path d="M0.282488643,24.0011026 C0.282488643,21.7913546 2.06670383,20 4.29018429,20 L24.4556071,20 C26.6689963,20 28.4633028,21.78128 28.4633028,24.0011026 L28.4633028,44.1333512 C28.4633028,46.3430991 26.6790876,48.1344538 24.4556071,48.1344538 L4.29018429,48.1344538 C2.0767951,48.1344538 0.282488643,46.3531738 0.282488643,44.1333512 L0.282488643,24.0011026 Z" id="path-3"></path>
        <mask id="mask-4" maskContentUnits="userSpaceOnUse" maskUnits="objectBoundingBox" x="0" y="0" width="28.1808141" height="28.1344538" fill="white">
            <use xlink:href="#path-3"></use>
        </mask>
    </defs>
    <g id="9.0-Real-Estate-Partners" stroke="none" stroke-width="1" fill="none" fill-rule="evenodd">
        <g id="9.0-Real-Estate-Partners-1@2x" transform="translate(-297.000000, -876.000000)">
            <g id="Group-13" transform="translate(299.000000, 878.000000)">
                <path d="M0,100.403361 L188.204505,100.403361" id="Path-263" stroke="#D0D0D0" stroke-width="3" stroke-linecap="round" stroke-linejoin="round"></path>
                <g id="Group-9" transform="translate(3.467890, 0.000000)">
                    <use id="Rectangle-140" stroke="#2B65B0" mask="url(#mask-2)" stroke-width="6" fill="#FFFFFF" xlink:href="#path-1"></use>
                    <ellipse id="Oval-54-Copy" fill="#2B65B0" cx="12.3456881" cy="97.127125" rx="1.07504587" ry="1.05149477"></ellipse>
                    <ellipse id="Oval-54-Copy-16" fill="#2B65B0" cx="10.6117431" cy="93.6649401" rx="1.07504587" ry="1.05149477"></ellipse>
                    <ellipse id="Oval-54-Copy-12" fill="#2B65B0" cx="15.813578" cy="97.127125" rx="1.07504587" ry="1.05149477"></ellipse>
                    <ellipse id="Oval-54-Copy-17" fill="#2B65B0" cx="14.079633" cy="93.6649401" rx="1.07504587" ry="1.05149477"></ellipse>
                    <ellipse id="Oval-54-Copy-13" fill="#2B65B0" cx="19.2814679" cy="97.127125" rx="1.07504587" ry="1.05149477"></ellipse>
                    <ellipse id="Oval-54-Copy-18" fill="#2B65B0" cx="17.5475229" cy="93.6649401" rx="1.07504587" ry="1.05149477"></ellipse>
                    <ellipse id="Oval-54-Copy-14" fill="#2B65B0" cx="22.7493578" cy="97.127125" rx="1.07504587" ry="1.05149477"></ellipse>
                    <ellipse id="Oval-54-Copy-19" fill="#2B65B0" cx="21.0154128" cy="93.6649401" rx="1.07504587" ry="1.05149477"></ellipse>
                    <ellipse id="Oval-54-Copy-15" fill="#2B65B0" cx="26.2172477" cy="97.127125" rx="1.07504587" ry="1.05149477"></ellipse>
                    <ellipse id="Oval-54-Copy-20" fill="#2B65B0" cx="24.4833028" cy="93.6649401" rx="1.07504587" ry="1.05149477"></ellipse>
                    <ellipse id="Oval-54-Copy-27" fill="#2B65B0" cx="27.9511927" cy="93.6649401" rx="1.07504587" ry="1.05149477"></ellipse>
                    <ellipse id="Oval-54-Copy-25" fill="#2B65B0" cx="10.6117431" cy="90.2027553" rx="1.07504587" ry="1.05149477"></ellipse>
                    <ellipse id="Oval-54-Copy-24" fill="#2B65B0" cx="14.079633" cy="90.2027553" rx="1.07504587" ry="1.05149477"></ellipse>
                    <ellipse id="Oval-54-Copy-23" fill="#2B65B0" cx="17.5475229" cy="90.2027553" rx="1.07504587" ry="1.05149477"></ellipse>
                    <ellipse id="Oval-54-Copy-22" fill="#2B65B0" cx="21.0154128" cy="90.2027553" rx="1.07504587" ry="1.05149477"></ellipse>
                    <ellipse id="Oval-54-Copy-21" fill="#2B65B0" cx="24.4833028" cy="90.2027553" rx="1.07504587" ry="1.05149477"></ellipse>
                    <ellipse id="Oval-54-Copy-26" fill="#2B65B0" cx="27.9511927" cy="90.2027553" rx="1.07504587" ry="1.05149477"></ellipse>
                    <path d="M15.6153948,59.1836472 C15.6153948,59.1836472 19.6947651,47.8918224 16.9437514,37.3639212 C14.1927376,26.8360199 11.1222902,25.3855571 5.70177547,15.5441952 C5.70177547,15.5441952 7.90795507,29.6857666 7.1881684,41.1018705 C6.59442781,50.5188334 4.43588161,58.124061 4.43588161,58.124061" id="Path-254" stroke="#2B65B0" stroke-width="3" stroke-linejoin="round" transform="translate(11.166359, 37.363921) rotate(-10.000000) translate(-11.166359, -37.363921) "></path>
                    <path id="Path-255" stroke="#979797"></path>
                    <path d="M20.6947347,58.4328223 C20.6947347,58.4328223 20.7577223,43.8816973 21.7814413,37.7645253 C23.1271992,29.7230291 30.820295,14.1936056 30.820295,14.1936056 C30.820295,14.1936056 32.8558469,25.4103194 32.9435675,35.1974708 C32.9989043,41.3715019 30.8202947,58.4328223 30.8202947,58.4328223" id="Path-256" stroke="#2B65B0" stroke-width="3" stroke-linecap="round" stroke-linejoin="round"></path>
                    <path d="M15.5208393,34.0682035 C15.5208393,34.0682035 12.7886907,26.6265346 14.5962944,17.4630712 C16.4038982,8.29960773 22.5429775,0.325425092 22.5429775,0.325425092 C22.5429775,0.325425092 20.9825965,9.84136194 20.9825965,17.4630712 C20.9825965,25.0847804 22.5429776,32.4275538 22.5429776,32.4275538" id="Path-257" stroke="#2B65B0" stroke-width="3" stroke-linecap="round" stroke-linejoin="round"></path>
                    <path d="M3.79850783,19.5931263 C3.79850783,19.5931263 13.7161988,34.6501649 13.7161988,58.2147453" id="Path-270" stroke="#2B65B0" stroke-width="2"></path>
                    <path d="M30.5332636,17.3586816 C30.5332636,17.3586816 29.8559414,34.1277943 29.024105,40.7694246 C28.1922686,47.4110549 26.0053644,55.6007788 26.0053644,58.2248884" id="Path-271" stroke="#2B65B0" stroke-width="2"></path>
                </g>
                <g id="Group-12" transform="translate(65.000000, 10.000000)">
                    <path d="M38.4,56.2583152 C45.7027925,58.5236728 51,65.2619702 51,73.2222222 C51,83.0406178 42.9411255,91 33,91 C23.0588745,91 15,83.0406178 15,73.2222222 C15,64.9384914 20.7364775,57.9780457 28.5,56.0045222 L28.5,51.9970301 C28.5,51.4463856 28.9511078,51 29.5037461,51 L37.3962539,51 C37.9506075,51 38.4,51.4530363 38.4,51.9970301 L38.4,56.2583152 Z" id="Combined-Shape" stroke="#2B65B0" stroke-width="3" fill="#FFFFFF"></path>
                    <g id="Group-2" transform="translate(30.598960, 43.975545) rotate(2.000000) translate(-30.598960, -43.975545) translate(1.598960, 1.975545)">
                        <ellipse id="Oval-54-Copy-35" fill="#2B65B0" cx="46.499394" cy="1.03863668" rx="1.06189979" ry="1.03863668"></ellipse>
                        <ellipse id="Oval-54-Copy-36" fill="#2B65B0" cx="44.5238507" cy="5.97749474" rx="1.06189979" ry="1.03863668"></ellipse>
                        <ellipse id="Oval-54-Copy-41" fill="#2B65B0" cx="29.7072766" cy="4.00195152" rx="1.06189979" ry="1.03863668"></ellipse>
                        <ellipse id="Oval-54-Copy-42" fill="#2B65B0" cx="20.817332" cy="6.96526636" rx="1.06189979" ry="1.03863668"></ellipse>
                        <ellipse id="Oval-54-Copy-43" fill="#2B65B0" cx="22.7928753" cy="13.8796676" rx="1.06189979" ry="1.03863668"></ellipse>
                        <ellipse id="Oval-54-Copy-44" fill="#2B65B0" cx="13.9029308" cy="7.95303797" rx="1.06189979" ry="1.03863668"></ellipse>
                        <ellipse id="Oval-54-Copy-45" fill="#2B65B0" cx="6.00075786" cy="7.95303797" rx="1.06189979" ry="1.03863668"></ellipse>
                        <ellipse id="Oval-54-Copy-46" fill="#2B65B0" cx="6.00075786" cy="23.7573838" rx="1.06189979" ry="1.03863668"></ellipse>
                        <ellipse id="Oval-54-Copy-47" fill="#2B65B0" cx="11.9273875" cy="28.6962418" rx="1.06189979" ry="1.03863668"></ellipse>
                        <ellipse id="Oval-54-Copy-37" fill="#2B65B0" cx="56.3771101" cy="7.95303797" rx="1.06189979" ry="1.03863668"></ellipse>
                        <ellipse id="Oval-54-Copy-38" fill="#2B65B0" cx="46.499394" cy="28.6962418" rx="1.06189979" ry="1.03863668"></ellipse>
                        <ellipse id="Oval-54-Copy-39" fill="#2B65B0" cx="44.5238507" cy="39.5617296" rx="1.06189979" ry="1.03863668"></ellipse>
                        <ellipse id="Oval-54-Copy-40" fill="#2B65B0" cx="51.438252" cy="37.5861863" rx="1.06189979" ry="1.03863668"></ellipse>
                        <path d="M30.4385054,83.1887972 C30.4385054,83.1887972 35.7932163,44.1786641 28.6579168,33.8147792 C21.5226174,23.4508942 9.05296538,16.9946878 10.4101868,3.94047562" id="Path-1524" stroke="#2B65B0" stroke-width="3" stroke-linecap="round"></path>
                        <path d="M23.2541116,26.6148502 C23.2541116,26.6148502 25.5942814,19.6888734 32.5183289,17.7712074 C39.4423764,15.8535415 50.2741024,12.2506831 50.2741024,2.44820738" id="Path-1525" stroke="#2B65B0" stroke-width="3" stroke-linecap="round"></path>
                        <path d="M30.6228492,35.826978 C30.6228492,35.826978 41.5249925,39.0324126 50.1573833,30.6103092" id="Path-1526" stroke="#2B65B0" stroke-width="3" stroke-linecap="round"></path>
                        <path d="M27.5496274,32.6765704 C27.5496274,32.6765704 24.7936462,31.0067684 19.9502856,32.3408387 C15.106925,33.6749091 3.05784767,34.8440295 0.39163601,22.9599023" id="Path-1527" stroke="#2B65B0" stroke-width="3" stroke-linecap="round"></path>
                        <path d="M12.4686874,15.0760572 C12.4686874,15.0760572 6.29222093,17.6023988 0.981983888,11.5899179" id="Path-1528" stroke="#2B65B0" stroke-width="3" stroke-linecap="round"></path>
                        <path d="M33.7810174,16.8075513 C33.7810174,16.8075513 24.9614902,13.7892531 24.9614902,5.36714966" id="Path-1529" stroke="#2B65B0" stroke-width="3" stroke-linecap="round"></path>
                        <path d="M40.4957422,15.6422895 C40.4957422,15.6422895 47.981199,19.4081688 55.0933475,12.8583941" id="Path-1530" stroke="#2B65B0" stroke-width="3" stroke-linecap="round"></path>
                    </g>
                    <path d="M15,72.2640597 C15,72.2640597 17.425504,69.2401422 20.9628794,71.0646358 C24.5002547,72.8891295 27.6358541,72.9711198 30.0928015,70.8186652 C32.5497489,68.6662105 37.6020817,65.8062734 42.4316908,70.6648279 C47.2612999,75.5233823 51,70.5316994 51,70.5316994" id="Path-260" stroke="#2B65B0" stroke-width="2"></path>
                </g>
                <g id="Group-11" transform="translate(151.000000, 54.000000)" stroke="#2B65B0">
                    <use id="Rectangle-142" mask="url(#mask-4)" stroke-width="6" fill="#FFFFFF" xlink:href="#path-3"></use>
                    <g id="Group-10" transform="translate(1.000000, 0.000000)" stroke-width="2" fill="#FFFFFF">
                        <path d="M13.1511999,17.475084 C14.8381787,17.475084 16.2057453,15.3538464 16.2057453,12.7371671 C16.2057453,10.1204879 14.8381787,7.99925031 13.1511999,7.99925031 C11.464221,7.99925031 10.0966544,10.1204879 10.0966544,12.7371671 C10.0966544,15.3538464 11.464221,17.475084 13.1511999,17.475084 Z" id="Oval-226-Copy-6" transform="translate(13.151200, 12.737167) rotate(-74.000000) translate(-13.151200, -12.737167) "></path>
                        <ellipse id="Oval-226-Copy" cx="17.6145455" cy="19.5789474" rx="3.05454545" ry="4.42105263"></ellipse>
                        <ellipse id="Oval-226-Copy-5" transform="translate(6.988970, 16.301253) rotate(-74.000000) translate(-6.988970, -16.301253) " cx="6.98897001" cy="16.3012532" rx="3.86897096" ry="5.14076561"></ellipse>
                        <ellipse id="Oval-226" cx="12.7272727" cy="20.8421053" rx="3.05454545" ry="3.15789474"></ellipse>
                        <ellipse id="Oval-226-Copy-2" transform="translate(21.920142, 13.833059) rotate(-37.000000) translate(-21.920142, -13.833059) " cx="21.920142" cy="13.8330592" rx="3.05454545" ry="4.42105263"></ellipse>
                        <ellipse id="Oval-226-Copy-3" transform="translate(14.612992, 9.333622) rotate(-74.000000) translate(-14.612992, -9.333622) " cx="14.6129915" cy="9.33362187" rx="3.05454545" ry="4.42105263"></ellipse>
                        <ellipse id="Oval-226-Copy-4" cx="21.6254545" cy="4.92105263" rx="3.4" ry="4.92105263"></ellipse>
                    </g>
                    <path d="M7,45.8525391 L7,38.9274187" id="Path-1529" stroke-width="2" stroke-linecap="round"></path>
                    <path d="M12,45.9915962 L12,35" id="Path-1529-Copy" stroke-width="2" stroke-linecap="round"></path>
                    <path d="M17,45.9915962 L17,37" id="Path-1529-Copy-2" stroke-width="2" stroke-linecap="round"></path>
                    <path d="M22,45.9915962 L22,38.9288476" id="Path-1529-Copy-3" stroke-width="2" stroke-linecap="round"></path>
                </g>
            </g>
        </g>
    </g>
</svg>